<svg width="165" height="211" viewBox="0 0 165 211" fill="none" xmlns="http://www.w3.org/2000/svg">
<path d="M6.264 13.18C4.608 13.18 3.324 12.754 2.412 11.902C1.512 11.05 1.032 9.85 0.972 8.302C0.96 7.978 0.954 7.45 0.954 6.718C0.954 5.974 0.96 5.434 0.972 5.098C1.032 3.562 1.518 2.368 2.43 1.516C3.354 0.651999 4.632 0.219999 6.264 0.219999C7.332 0.219999 8.262 0.405999 9.054 0.778C9.846 1.138 10.458 1.636 10.89 2.272C11.322 2.896 11.55 3.604 11.574 4.396V4.432C11.574 4.528 11.532 4.612 11.448 4.684C11.376 4.744 11.292 4.774 11.196 4.774H9.486C9.342 4.774 9.234 4.744 9.162 4.684C9.09 4.624 9.03 4.51 8.982 4.342C8.79 3.586 8.472 3.058 8.028 2.758C7.584 2.446 6.99 2.29 6.246 2.29C4.518 2.29 3.618 3.256 3.546 5.188C3.534 5.512 3.528 6.01 3.528 6.682C3.528 7.354 3.534 7.864 3.546 8.212C3.618 10.144 4.518 11.11 6.246 11.11C6.99 11.11 7.584 10.954 8.028 10.642C8.484 10.33 8.802 9.802 8.982 9.058C9.018 8.89 9.072 8.776 9.144 8.716C9.228 8.656 9.342 8.626 9.486 8.626H11.196C11.304 8.626 11.394 8.662 11.466 8.734C11.55 8.806 11.586 8.896 11.574 9.004C11.55 9.796 11.322 10.51 10.89 11.146C10.458 11.77 9.846 12.268 9.054 12.64C8.262 13 7.332 13.18 6.264 13.18ZM17.8127 13.18C16.4087 13.18 15.3227 12.82 14.5547 12.1C13.7867 11.368 13.3727 10.372 13.3127 9.112L13.2947 8.32L13.3127 7.528C13.3727 6.28 13.7927 5.29 14.5727 4.558C15.3527 3.826 16.4327 3.46 17.8127 3.46C19.1927 3.46 20.2727 3.826 21.0527 4.558C21.8327 5.29 22.2527 6.28 22.3127 7.528C22.3247 7.672 22.3307 7.936 22.3307 8.32C22.3307 8.704 22.3247 8.968 22.3127 9.112C22.2527 10.372 21.8387 11.368 21.0707 12.1C20.3027 12.82 19.2167 13.18 17.8127 13.18ZM17.8127 11.398C18.4487 11.398 18.9407 11.2 19.2887 10.804C19.6367 10.396 19.8287 9.802 19.8647 9.022C19.8767 8.902 19.8827 8.668 19.8827 8.32C19.8827 7.972 19.8767 7.738 19.8647 7.618C19.8287 6.838 19.6367 6.25 19.2887 5.854C18.9407 5.446 18.4487 5.242 17.8127 5.242C17.1767 5.242 16.6847 5.446 16.3367 5.854C15.9887 6.25 15.7967 6.838 15.7607 7.618L15.7427 8.32L15.7607 9.022C15.7967 9.802 15.9887 10.396 16.3367 10.804C16.6847 11.2 17.1767 11.398 17.8127 11.398ZM24.937 13C24.817 13 24.715 12.958 24.631 12.874C24.547 12.79 24.505 12.688 24.505 12.568V4.072C24.505 3.952 24.547 3.85 24.631 3.766C24.715 3.682 24.817 3.64 24.937 3.64H26.341C26.461 3.64 26.563 3.682 26.647 3.766C26.731 3.85 26.773 3.952 26.773 4.072V4.684C27.397 3.868 28.267 3.46 29.383 3.46C30.715 3.46 31.645 3.994 32.173 5.062C32.461 4.582 32.869 4.198 33.397 3.91C33.925 3.61 34.495 3.46 35.107 3.46C36.091 3.46 36.895 3.796 37.519 4.468C38.143 5.14 38.455 6.118 38.455 7.402V12.568C38.455 12.688 38.413 12.79 38.329 12.874C38.257 12.958 38.155 13 38.023 13H36.547C36.427 13 36.325 12.958 36.241 12.874C36.157 12.79 36.115 12.688 36.115 12.568V7.546C36.115 6.79 35.953 6.244 35.629 5.908C35.317 5.56 34.897 5.386 34.369 5.386C33.901 5.386 33.499 5.56 33.163 5.908C32.839 6.256 32.677 6.802 32.677 7.546V12.568C32.677 12.688 32.635 12.79 32.551 12.874C32.467 12.958 32.365 13 32.245 13H30.769C30.649 13 30.547 12.958 30.463 12.874C30.379 12.79 30.337 12.688 30.337 12.568V7.546C30.337 6.79 30.169 6.244 29.833 5.908C29.509 5.56 29.095 5.386 28.591 5.386C28.111 5.386 27.703 5.56 27.367 5.908C27.043 6.256 26.881 6.802 26.881 7.546V12.568C26.881 12.688 26.839 12.79 26.755 12.874C26.671 12.958 26.569 13 26.449 13H24.937ZM41.3772 16.42C41.2572 16.42 41.1552 16.378 41.0712 16.294C40.9872 16.222 40.9452 16.12 40.9452 15.988V4.072C40.9452 3.94 40.9872 3.838 41.0712 3.766C41.1552 3.682 41.2572 3.64 41.3772 3.64H42.7992C42.9312 3.64 43.0332 3.682 43.1052 3.766C43.1892 3.838 43.2312 3.94 43.2312 4.072V4.792C43.9032 3.904 44.8632 3.46 46.1112 3.46C47.3232 3.46 48.2532 3.844 48.9012 4.612C49.5492 5.368 49.8972 6.394 49.9452 7.69C49.9572 7.834 49.9632 8.044 49.9632 8.32C49.9632 8.608 49.9572 8.824 49.9452 8.968C49.8972 10.228 49.5492 11.248 48.9012 12.028C48.2532 12.796 47.3232 13.18 46.1112 13.18C44.8992 13.18 43.9752 12.754 43.3392 11.902V15.988C43.3392 16.12 43.2972 16.222 43.2132 16.294C43.1412 16.378 43.0392 16.42 42.9072 16.42H41.3772ZM45.4452 11.254C46.7412 11.254 47.4312 10.456 47.5152 8.86C47.5272 8.74 47.5332 8.56 47.5332 8.32C47.5332 8.08 47.5272 7.9 47.5152 7.78C47.4312 6.184 46.7412 5.386 45.4452 5.386C44.7492 5.386 44.2332 5.608 43.8972 6.052C43.5612 6.496 43.3752 7.042 43.3392 7.69L43.3212 8.374L43.3392 9.076C43.3632 9.676 43.5492 10.192 43.8972 10.624C44.2572 11.044 44.7732 11.254 45.4452 11.254ZM54.8819 13.18C54.2699 13.18 53.7059 13.06 53.1899 12.82C52.6859 12.568 52.2839 12.232 51.9839 11.812C51.6959 11.392 51.5519 10.93 51.5519 10.426C51.5519 9.61 51.8819 8.95 52.5419 8.446C53.2019 7.942 54.1079 7.6 55.2599 7.42L57.7259 7.06V6.682C57.7259 6.154 57.5939 5.758 57.3299 5.494C57.0659 5.23 56.6399 5.098 56.0519 5.098C55.6559 5.098 55.3319 5.176 55.0799 5.332C54.8399 5.476 54.6479 5.62 54.5039 5.764C54.3599 5.92 54.2639 6.022 54.2159 6.07C54.1679 6.214 54.0779 6.286 53.9459 6.286H52.5599C52.4519 6.286 52.3559 6.25 52.2719 6.178C52.1999 6.106 52.1639 6.01 52.1639 5.89C52.1759 5.59 52.3199 5.248 52.5959 4.864C52.8839 4.48 53.3219 4.15 53.9099 3.874C54.4979 3.598 55.2179 3.46 56.0699 3.46C57.4859 3.46 58.5179 3.778 59.1659 4.414C59.8139 5.05 60.1379 5.884 60.1379 6.916V12.568C60.1379 12.688 60.0959 12.79 60.0119 12.874C59.9399 12.958 59.8379 13 59.7059 13H58.2479C58.1279 13 58.0259 12.958 57.9419 12.874C57.8579 12.79 57.8159 12.688 57.8159 12.568V11.866C57.5519 12.25 57.1739 12.568 56.6819 12.82C56.2019 13.06 55.6019 13.18 54.8819 13.18ZM55.4939 11.47C56.1539 11.47 56.6939 11.254 57.1139 10.822C57.5339 10.39 57.7439 9.76 57.7439 8.932V8.554L55.9439 8.842C55.2479 8.95 54.7199 9.124 54.3599 9.364C54.0119 9.604 53.8379 9.898 53.8379 10.246C53.8379 10.63 53.9999 10.93 54.3239 11.146C54.6479 11.362 55.0379 11.47 55.4939 11.47ZM63.0591 13C62.9391 13 62.8371 12.958 62.7531 12.874C62.6691 12.79 62.6271 12.688 62.6271 12.568V4.072C62.6271 3.952 62.6691 3.85 62.7531 3.766C62.8371 3.682 62.9391 3.64 63.0591 3.64H64.5351C64.6551 3.64 64.7571 3.682 64.8411 3.766C64.9251 3.85 64.9671 3.952 64.9671 4.072V4.81C65.6751 3.91 66.6771 3.46 67.9731 3.46C69.0771 3.46 69.9531 3.826 70.6011 4.558C71.2491 5.278 71.5731 6.262 71.5731 7.51V12.568C71.5731 12.688 71.5311 12.79 71.4471 12.874C71.3751 12.958 71.2731 13 71.1411 13H69.5571C69.4371 13 69.3351 12.958 69.2511 12.874C69.1671 12.79 69.1251 12.688 69.1251 12.568V7.618C69.1251 6.91 68.9511 6.364 68.6031 5.98C68.2671 5.584 67.7751 5.386 67.1271 5.386C66.4911 5.386 65.9871 5.584 65.6151 5.98C65.2551 6.376 65.0751 6.922 65.0751 7.618V12.568C65.0751 12.688 65.0331 12.79 64.9491 12.874C64.8771 12.958 64.7751 13 64.6431 13H63.0591ZM75.4327 16.42C75.3367 16.42 75.2527 16.384 75.1807 16.312C75.1087 16.24 75.0727 16.156 75.0727 16.06C75.0727 15.952 75.0967 15.856 75.1447 15.772L76.5487 12.442L73.0927 4.288C73.0447 4.18 73.0207 4.096 73.0207 4.036C73.0327 3.928 73.0747 3.838 73.1467 3.766C73.2187 3.682 73.3087 3.64 73.4167 3.64H74.8747C75.1027 3.64 75.2647 3.754 75.3607 3.982L77.7547 9.868L80.2207 3.982C80.3167 3.754 80.4787 3.64 80.7067 3.64H82.1467C82.2427 3.64 82.3267 3.676 82.3987 3.748C82.4827 3.82 82.5247 3.904 82.5247 4C82.5247 4.084 82.5007 4.18 82.4527 4.288L77.3587 16.078C77.2507 16.306 77.0827 16.42 76.8547 16.42H75.4327ZM0.72 62C0.624 62 0.54 61.964 0.468 61.892C0.396 61.82 0.36 61.736 0.36 61.64C0.36 61.544 0.366 61.478 0.378 61.442L4.842 49.796C4.938 49.532 5.13 49.4 5.418 49.4H6.642C6.93 49.4 7.122 49.532 7.218 49.796L11.664 61.442L11.7 61.64C11.7 61.736 11.664 61.82 11.592 61.892C11.52 61.964 11.436 62 11.34 62H10.422C10.29 62 10.188 61.97 10.116 61.91C10.044 61.838 9.996 61.766 9.972 61.694L8.982 59.138H3.078L2.088 61.694C2.064 61.766 2.01 61.838 1.926 61.91C1.854 61.97 1.758 62 1.638 62H0.72ZM8.46 57.59L6.03 51.2L3.6 57.59H8.46ZM18.1966 62.18C16.9006 62.18 15.9166 61.73 15.2446 60.83V61.586C15.2446 61.706 15.2026 61.808 15.1186 61.892C15.0466 61.964 14.9506 62 14.8306 62H14.0026C13.8826 62 13.7806 61.964 13.6966 61.892C13.6246 61.808 13.5886 61.706 13.5886 61.586V49.634C13.5886 49.514 13.6246 49.418 13.6966 49.346C13.7806 49.262 13.8826 49.22 14.0026 49.22H14.8846C15.0046 49.22 15.1006 49.262 15.1726 49.346C15.2446 49.418 15.2806 49.514 15.2806 49.634V53.774C15.9886 52.898 16.9606 52.46 18.1966 52.46C19.4446 52.46 20.3866 52.874 21.0226 53.702C21.6586 54.518 22.0006 55.544 22.0486 56.78C22.0606 56.912 22.0666 57.092 22.0666 57.32C22.0666 57.548 22.0606 57.728 22.0486 57.86C22.0006 59.108 21.6586 60.14 21.0226 60.956C20.3866 61.772 19.4446 62.18 18.1966 62.18ZM17.8186 60.722C18.6706 60.722 19.2886 60.458 19.6726 59.93C20.0686 59.402 20.2846 58.706 20.3206 57.842C20.3326 57.722 20.3386 57.548 20.3386 57.32C20.3386 55.052 19.4986 53.918 17.8186 53.918C17.0146 53.918 16.3966 54.182 15.9646 54.71C15.5326 55.238 15.3046 55.856 15.2806 56.564L15.2626 57.266L15.2806 57.95C15.3166 58.706 15.5386 59.36 15.9466 59.912C16.3666 60.452 16.9906 60.722 17.8186 60.722ZM28.2897 62.18C26.9697 62.18 25.9437 61.808 25.2117 61.064C24.4917 60.32 24.1077 59.33 24.0597 58.094L24.0417 57.32L24.0597 56.546C24.1077 55.322 24.4977 54.338 25.2297 53.594C25.9617 52.838 26.9817 52.46 28.2897 52.46C29.5977 52.46 30.6177 52.838 31.3497 53.594C32.0817 54.338 32.4717 55.322 32.5197 56.546C32.5317 56.678 32.5377 56.936 32.5377 57.32C32.5377 57.704 32.5317 57.962 32.5197 58.094C32.4717 59.33 32.0817 60.32 31.3497 61.064C30.6297 61.808 29.6097 62.18 28.2897 62.18ZM28.2897 60.794C29.0457 60.794 29.6397 60.554 30.0717 60.074C30.5157 59.594 30.7557 58.904 30.7917 58.004C30.8037 57.884 30.8097 57.656 30.8097 57.32C30.8097 56.984 30.8037 56.756 30.7917 56.636C30.7557 55.736 30.5157 55.046 30.0717 54.566C29.6397 54.086 29.0457 53.846 28.2897 53.846C27.5337 53.846 26.9337 54.086 26.4897 54.566C26.0457 55.046 25.8117 55.736 25.7877 56.636L25.7697 57.32L25.7877 58.004C25.8117 58.904 26.0457 59.594 26.4897 60.074C26.9337 60.554 27.5337 60.794 28.2897 60.794ZM38.4636 62.18C37.3236 62.18 36.4416 61.814 35.8176 61.082C35.1936 60.338 34.8816 59.354 34.8816 58.13V53.054C34.8816 52.934 34.9176 52.838 34.9896 52.766C35.0736 52.682 35.1756 52.64 35.2956 52.64H36.1956C36.3156 52.64 36.4116 52.682 36.4836 52.766C36.5676 52.838 36.6096 52.934 36.6096 53.054V58.04C36.6096 59.828 37.3896 60.722 38.9496 60.722C39.7056 60.722 40.3056 60.488 40.7496 60.02C41.1936 59.54 41.4156 58.88 41.4156 58.04V53.054C41.4156 52.934 41.4516 52.838 41.5236 52.766C41.6076 52.682 41.7096 52.64 41.8296 52.64H42.7296C42.8496 52.64 42.9456 52.682 43.0176 52.766C43.0896 52.838 43.1256 52.934 43.1256 53.054V61.586C43.1256 61.706 43.0896 61.808 43.0176 61.892C42.9456 61.964 42.8496 62 42.7296 62H41.8836C41.7636 62 41.6616 61.964 41.5776 61.892C41.5056 61.808 41.4696 61.706 41.4696 61.586V60.794C41.1336 61.25 40.7256 61.598 40.2456 61.838C39.7656 62.066 39.1716 62.18 38.4636 62.18ZM49.6337 62C47.7377 62 46.7897 60.944 46.7897 58.832V54.08H45.3857C45.2657 54.08 45.1637 54.044 45.0797 53.972C45.0077 53.888 44.9717 53.786 44.9717 53.666V53.054C44.9717 52.934 45.0077 52.838 45.0797 52.766C45.1637 52.682 45.2657 52.64 45.3857 52.64H46.7897V49.634C46.7897 49.514 46.8257 49.418 46.8977 49.346C46.9817 49.262 47.0837 49.22 47.2037 49.22H48.0497C48.1697 49.22 48.2657 49.262 48.3377 49.346C48.4217 49.418 48.4637 49.514 48.4637 49.634V52.64H50.6957C50.8157 52.64 50.9117 52.682 50.9837 52.766C51.0677 52.838 51.1097 52.934 51.1097 53.054V53.666C51.1097 53.786 51.0677 53.888 50.9837 53.972C50.9117 54.044 50.8157 54.08 50.6957 54.08H48.4637V58.706C48.4637 59.306 48.5657 59.762 48.7697 60.074C48.9737 60.374 49.3097 60.524 49.7777 60.524H50.8757C50.9957 60.524 51.0917 60.566 51.1637 60.65C51.2477 60.722 51.2897 60.818 51.2897 60.938V61.586C51.2897 61.706 51.2477 61.808 51.1637 61.892C51.0917 61.964 50.9957 62 50.8757 62H49.6337ZM62.7691 62.18C61.2211 62.18 60.0211 61.766 59.1691 60.938C58.3291 60.098 57.9091 58.832 57.9091 57.14V49.832C57.9091 49.7 57.9451 49.598 58.0171 49.526C58.1011 49.442 58.2031 49.4 58.3231 49.4H59.2411C59.3731 49.4 59.4751 49.442 59.5471 49.526C59.6311 49.598 59.6731 49.7 59.6731 49.832V57.176C59.6731 58.328 59.9431 59.192 60.4831 59.768C61.0231 60.344 61.7851 60.632 62.7691 60.632C63.7531 60.632 64.5151 60.344 65.0551 59.768C65.5951 59.192 65.8651 58.328 65.8651 57.176V49.832C65.8651 49.7 65.9011 49.598 65.9731 49.526C66.0571 49.442 66.1591 49.4 66.2791 49.4H67.2151C67.3351 49.4 67.4311 49.442 67.5031 49.526C67.5871 49.61 67.6291 49.712 67.6291 49.832V57.14C67.6291 58.832 67.2031 60.098 66.3511 60.938C65.5111 61.766 64.3171 62.18 62.7691 62.18ZM73.7539 62.18C72.9139 62.18 72.2059 62.048 71.6299 61.784C71.0659 61.508 70.6399 61.196 70.3519 60.848C70.0759 60.5 69.9379 60.212 69.9379 59.984C69.9379 59.864 69.9799 59.774 70.0639 59.714C70.1599 59.642 70.2559 59.606 70.3519 59.606H71.1619C71.2819 59.606 71.3899 59.666 71.4859 59.786C71.7739 60.122 72.0859 60.386 72.4219 60.578C72.7579 60.77 73.2079 60.866 73.7719 60.866C74.3959 60.866 74.8999 60.746 75.2839 60.506C75.6799 60.254 75.8779 59.912 75.8779 59.48C75.8779 59.192 75.7939 58.958 75.6259 58.778C75.4699 58.586 75.1939 58.424 74.7979 58.292C74.4139 58.148 73.8379 57.992 73.0699 57.824C72.0259 57.596 71.2819 57.266 70.8379 56.834C70.4059 56.402 70.1899 55.844 70.1899 55.16C70.1899 54.704 70.3219 54.272 70.5859 53.864C70.8619 53.444 71.2579 53.108 71.7739 52.856C72.3019 52.592 72.9319 52.46 73.6639 52.46C74.4319 52.46 75.0859 52.586 75.6259 52.838C76.1659 53.09 76.5679 53.39 76.8319 53.738C77.1079 54.074 77.2459 54.356 77.2459 54.584C77.2459 54.692 77.2039 54.782 77.1199 54.854C77.0479 54.926 76.9579 54.962 76.8499 54.962H76.0939C75.9499 54.962 75.8299 54.902 75.7339 54.782C75.5419 54.554 75.3739 54.38 75.2299 54.26C75.0979 54.128 74.8999 54.014 74.6359 53.918C74.3839 53.822 74.0599 53.774 73.6639 53.774C73.0879 53.774 72.6439 53.9 72.3319 54.152C72.0199 54.392 71.8639 54.71 71.8639 55.106C71.8639 55.358 71.9299 55.574 72.0619 55.754C72.1939 55.922 72.4459 56.078 72.8179 56.222C73.2019 56.366 73.7539 56.516 74.4739 56.672C75.6139 56.912 76.4179 57.26 76.8859 57.716C77.3659 58.16 77.6059 58.73 77.6059 59.426C77.6059 59.942 77.4559 60.41 77.1559 60.83C76.8559 61.25 76.4119 61.58 75.8239 61.82C75.2479 62.06 74.5579 62.18 73.7539 62.18ZM1.98 111C1.86 111 1.758 110.964 1.674 110.892C1.602 110.808 1.566 110.706 1.566 110.586V98.832C1.566 98.7 1.602 98.598 1.674 98.526C1.758 98.442 1.86 98.4 1.98 98.4H2.808C3.024 98.4 3.174 98.484 3.258 98.652L9.234 107.832V98.832C9.234 98.7 9.27 98.598 9.342 98.526C9.426 98.442 9.528 98.4 9.648 98.4H10.512C10.644 98.4 10.746 98.442 10.818 98.526C10.902 98.598 10.944 98.7 10.944 98.832V110.568C10.944 110.688 10.902 110.79 10.818 110.874C10.746 110.958 10.65 111 10.53 111H9.666C9.486 111 9.342 110.916 9.234 110.748L3.276 101.658V110.586C3.276 110.706 3.234 110.808 3.15 110.892C3.066 110.964 2.964 111 2.844 111H1.98ZM17.7716 111.18C16.5356 111.18 15.5456 110.802 14.8016 110.046C14.0696 109.278 13.6676 108.234 13.5956 106.914L13.5776 106.302L13.5956 105.708C13.6796 104.412 14.0876 103.38 14.8196 102.612C15.5636 101.844 16.5416 101.46 17.7536 101.46C19.0856 101.46 20.1176 101.886 20.8496 102.738C21.5816 103.578 21.9476 104.718 21.9476 106.158V106.464C21.9476 106.584 21.9056 106.686 21.8216 106.77C21.7496 106.842 21.6536 106.878 21.5336 106.878H15.3056V107.04C15.3416 107.82 15.5756 108.486 16.0076 109.038C16.4516 109.578 17.0336 109.848 17.7536 109.848C18.3056 109.848 18.7556 109.74 19.1036 109.524C19.4636 109.296 19.7276 109.062 19.8956 108.822C20.0036 108.678 20.0816 108.594 20.1296 108.57C20.1896 108.534 20.2916 108.516 20.4356 108.516H21.3176C21.4256 108.516 21.5156 108.546 21.5876 108.606C21.6596 108.666 21.6956 108.75 21.6956 108.858C21.6956 109.122 21.5276 109.44 21.1916 109.812C20.8676 110.184 20.4056 110.508 19.8056 110.784C19.2176 111.048 18.5396 111.18 17.7716 111.18ZM20.2376 105.636V105.582C20.2376 104.754 20.0096 104.082 19.5536 103.566C19.1096 103.038 18.5096 102.774 17.7536 102.774C16.9976 102.774 16.3976 103.038 15.9536 103.566C15.5216 104.082 15.3056 104.754 15.3056 105.582V105.636H20.2376ZM26.5178 111C26.3618 111 26.2418 110.964 26.1578 110.892C26.0738 110.82 26.0018 110.706 25.9418 110.55L23.3858 102.198L23.3498 102.018C23.3498 101.91 23.3858 101.82 23.4578 101.748C23.5418 101.676 23.6318 101.64 23.7278 101.64H24.5198C24.6398 101.64 24.7358 101.676 24.8078 101.748C24.8918 101.808 24.9458 101.874 24.9698 101.946L26.9678 108.732L29.1098 102.018C29.1338 101.922 29.1878 101.838 29.2718 101.766C29.3558 101.682 29.4698 101.64 29.6138 101.64H30.2258C30.3698 101.64 30.4838 101.682 30.5678 101.766C30.6518 101.838 30.7058 101.922 30.7298 102.018L32.8718 108.732L34.8698 101.946C34.8818 101.886 34.9238 101.82 34.9958 101.748C35.0798 101.676 35.1818 101.64 35.3018 101.64H36.1118C36.2078 101.64 36.2918 101.676 36.3638 101.748C36.4358 101.82 36.4718 101.91 36.4718 102.018L36.4358 102.198L33.8978 110.55C33.8378 110.706 33.7658 110.82 33.6818 110.892C33.5978 110.964 33.4718 111 33.3038 111H32.6018C32.2778 111 32.0798 110.85 32.0078 110.55L29.9198 104.106L27.8318 110.55C27.7358 110.85 27.5318 111 27.2198 111H26.5178ZM41.6569 111.18C40.8169 111.18 40.1089 111.048 39.5329 110.784C38.9689 110.508 38.5429 110.196 38.2549 109.848C37.9789 109.5 37.8409 109.212 37.8409 108.984C37.8409 108.864 37.8829 108.774 37.9669 108.714C38.0629 108.642 38.1589 108.606 38.2549 108.606H39.0649C39.1849 108.606 39.2929 108.666 39.3889 108.786C39.6769 109.122 39.9889 109.386 40.3249 109.578C40.6609 109.77 41.1109 109.866 41.6749 109.866C42.2989 109.866 42.8029 109.746 43.1869 109.506C43.5829 109.254 43.7809 108.912 43.7809 108.48C43.7809 108.192 43.6969 107.958 43.5289 107.778C43.3729 107.586 43.0969 107.424 42.7009 107.292C42.3169 107.148 41.7409 106.992 40.9729 106.824C39.9289 106.596 39.1849 106.266 38.7409 105.834C38.3089 105.402 38.0929 104.844 38.0929 104.16C38.0929 103.704 38.2249 103.272 38.4889 102.864C38.7649 102.444 39.1609 102.108 39.6769 101.856C40.2049 101.592 40.8349 101.46 41.5669 101.46C42.3349 101.46 42.9889 101.586 43.5289 101.838C44.0689 102.09 44.4709 102.39 44.7349 102.738C45.0109 103.074 45.1489 103.356 45.1489 103.584C45.1489 103.692 45.1069 103.782 45.0229 103.854C44.9509 103.926 44.8609 103.962 44.7529 103.962H43.9969C43.8529 103.962 43.7329 103.902 43.6369 103.782C43.4449 103.554 43.2769 103.38 43.1329 103.26C43.0009 103.128 42.8029 103.014 42.5389 102.918C42.2869 102.822 41.9629 102.774 41.5669 102.774C40.9909 102.774 40.5469 102.9 40.2349 103.152C39.9229 103.392 39.7669 103.71 39.7669 104.106C39.7669 104.358 39.8329 104.574 39.9649 104.754C40.0969 104.922 40.3489 105.078 40.7209 105.222C41.1049 105.366 41.6569 105.516 42.3769 105.672C43.5169 105.912 44.3209 106.26 44.7889 106.716C45.2689 107.16 45.5089 107.73 45.5089 108.426C45.5089 108.942 45.3589 109.41 45.0589 109.83C44.7589 110.25 44.3149 110.58 43.7269 110.82C43.1509 111.06 42.4609 111.18 41.6569 111.18ZM6.102 160.18C4.53 160.18 3.312 159.772 2.448 158.956C1.596 158.128 1.146 156.886 1.098 155.23C1.086 154.87 1.08 154.36 1.08 153.7C1.08 153.04 1.086 152.536 1.098 152.188C1.146 150.568 1.614 149.338 2.502 148.498C3.39 147.646 4.59 147.22 6.102 147.22C7.602 147.22 8.796 147.646 9.684 148.498C10.572 149.338 11.04 150.568 11.088 152.188C11.112 152.884 11.124 153.388 11.124 153.7C11.124 154 11.112 154.51 11.088 155.23C11.04 156.886 10.584 158.128 9.72 158.956C8.868 159.772 7.662 160.18 6.102 160.18ZM6.102 158.65C7.05 158.65 7.806 158.362 8.37 157.786C8.934 157.21 9.24 156.328 9.288 155.14C9.312 154.42 9.324 153.94 9.324 153.7C9.324 153.436 9.312 152.956 9.288 152.26C9.24 151.072 8.928 150.19 8.352 149.614C7.788 149.038 7.038 148.75 6.102 148.75C5.154 148.75 4.392 149.038 3.816 149.614C3.252 150.19 2.946 151.072 2.898 152.26C2.886 152.608 2.88 153.088 2.88 153.7C2.88 154.3 2.886 154.78 2.898 155.14C2.946 156.328 3.252 157.21 3.816 157.786C4.392 158.362 5.154 158.65 6.102 158.65ZM17.1856 160.18C16.0456 160.18 15.1636 159.814 14.5396 159.082C13.9156 158.338 13.6036 157.354 13.6036 156.13V151.054C13.6036 150.934 13.6396 150.838 13.7116 150.766C13.7956 150.682 13.8976 150.64 14.0176 150.64H14.9176C15.0376 150.64 15.1336 150.682 15.2056 150.766C15.2896 150.838 15.3316 150.934 15.3316 151.054V156.04C15.3316 157.828 16.1116 158.722 17.6716 158.722C18.4276 158.722 19.0276 158.488 19.4716 158.02C19.9156 157.54 20.1376 156.88 20.1376 156.04V151.054C20.1376 150.934 20.1736 150.838 20.2456 150.766C20.3296 150.682 20.4316 150.64 20.5516 150.64H21.4516C21.5716 150.64 21.6676 150.682 21.7396 150.766C21.8116 150.838 21.8476 150.934 21.8476 151.054V159.586C21.8476 159.706 21.8116 159.808 21.7396 159.892C21.6676 159.964 21.5716 160 21.4516 160H20.6056C20.4856 160 20.3836 159.964 20.2996 159.892C20.2276 159.808 20.1916 159.706 20.1916 159.586V158.794C19.8556 159.25 19.4476 159.598 18.9676 159.838C18.4876 160.066 17.8936 160.18 17.1856 160.18ZM25.1158 160C24.9958 160 24.8938 159.964 24.8098 159.892C24.7378 159.808 24.7018 159.706 24.7018 159.586V151.072C24.7018 150.952 24.7378 150.85 24.8098 150.766C24.8938 150.682 24.9958 150.64 25.1158 150.64H25.9438C26.0638 150.64 26.1658 150.682 26.2498 150.766C26.3338 150.85 26.3758 150.952 26.3758 151.072V151.864C26.8678 151.048 27.7078 150.64 28.8958 150.64H29.5978C29.7178 150.64 29.8138 150.682 29.8858 150.766C29.9698 150.838 30.0118 150.934 30.0118 151.054V151.792C30.0118 151.912 29.9698 152.008 29.8858 152.08C29.8138 152.152 29.7178 152.188 29.5978 152.188H28.5178C27.8698 152.188 27.3598 152.38 26.9878 152.764C26.6158 153.136 26.4298 153.646 26.4298 154.294V159.586C26.4298 159.706 26.3878 159.808 26.3038 159.892C26.2198 159.964 26.1178 160 25.9978 160H25.1158ZM39.1572 160C37.2612 160 36.3132 158.944 36.3132 156.832V152.08H34.9092C34.7892 152.08 34.6872 152.044 34.6032 151.972C34.5312 151.888 34.4952 151.786 34.4952 151.666V151.054C34.4952 150.934 34.5312 150.838 34.6032 150.766C34.6872 150.682 34.7892 150.64 34.9092 150.64H36.3132V147.634C36.3132 147.514 36.3492 147.418 36.4212 147.346C36.5052 147.262 36.6072 147.22 36.7272 147.22H37.5732C37.6932 147.22 37.7892 147.262 37.8612 147.346C37.9452 147.418 37.9872 147.514 37.9872 147.634V150.64H40.2192C40.3392 150.64 40.4352 150.682 40.5072 150.766C40.5912 150.838 40.6332 150.934 40.6332 151.054V151.666C40.6332 151.786 40.5912 151.888 40.5072 151.972C40.4352 152.044 40.3392 152.08 40.2192 152.08H37.9872V156.706C37.9872 157.306 38.0892 157.762 38.2932 158.074C38.4972 158.374 38.8332 158.524 39.3012 158.524H40.3992C40.5192 158.524 40.6152 158.566 40.6872 158.65C40.7712 158.722 40.8132 158.818 40.8132 158.938V159.586C40.8132 159.706 40.7712 159.808 40.6872 159.892C40.6152 159.964 40.5192 160 40.3992 160H39.1572ZM43.1284 160C43.0084 160 42.9064 159.964 42.8224 159.892C42.7504 159.808 42.7144 159.706 42.7144 159.586V151.072C42.7144 150.952 42.7504 150.85 42.8224 150.766C42.9064 150.682 43.0084 150.64 43.1284 150.64H43.9564C44.0764 150.64 44.1784 150.682 44.2624 150.766C44.3464 150.85 44.3884 150.952 44.3884 151.072V151.864C44.8804 151.048 45.7204 150.64 46.9084 150.64H47.6104C47.7304 150.64 47.8264 150.682 47.8984 150.766C47.9824 150.838 48.0244 150.934 48.0244 151.054V151.792C48.0244 151.912 47.9824 152.008 47.8984 152.08C47.8264 152.152 47.7304 152.188 47.6104 152.188H46.5304C45.8824 152.188 45.3724 152.38 45.0004 152.764C44.6284 153.136 44.4424 153.646 44.4424 154.294V159.586C44.4424 159.706 44.4004 159.808 44.3164 159.892C44.2324 159.964 44.1304 160 44.0104 160H43.1284ZM53.2243 160.18C52.0843 160.18 51.2023 159.814 50.5783 159.082C49.9543 158.338 49.6423 157.354 49.6423 156.13V151.054C49.6423 150.934 49.6783 150.838 49.7503 150.766C49.8343 150.682 49.9363 150.64 50.0563 150.64H50.9563C51.0763 150.64 51.1723 150.682 51.2443 150.766C51.3283 150.838 51.3703 150.934 51.3703 151.054V156.04C51.3703 157.828 52.1503 158.722 53.7103 158.722C54.4663 158.722 55.0663 158.488 55.5103 158.02C55.9543 157.54 56.1763 156.88 56.1763 156.04V151.054C56.1763 150.934 56.2123 150.838 56.2843 150.766C56.3683 150.682 56.4703 150.64 56.5903 150.64H57.4903C57.6103 150.64 57.7063 150.682 57.7783 150.766C57.8503 150.838 57.8863 150.934 57.8863 151.054V159.586C57.8863 159.706 57.8503 159.808 57.7783 159.892C57.7063 159.964 57.6103 160 57.4903 160H56.6443C56.5243 160 56.4223 159.964 56.3383 159.892C56.2663 159.808 56.2303 159.706 56.2303 159.586V158.794C55.8943 159.25 55.4863 159.598 55.0063 159.838C54.5263 160.066 53.9323 160.18 53.2243 160.18ZM63.9804 160.18C63.1404 160.18 62.4324 160.048 61.8564 159.784C61.2924 159.508 60.8664 159.196 60.5784 158.848C60.3024 158.5 60.1644 158.212 60.1644 157.984C60.1644 157.864 60.2064 157.774 60.2904 157.714C60.3864 157.642 60.4824 157.606 60.5784 157.606H61.3884C61.5084 157.606 61.6164 157.666 61.7124 157.786C62.0004 158.122 62.3124 158.386 62.6484 158.578C62.9844 158.77 63.4344 158.866 63.9984 158.866C64.6224 158.866 65.1264 158.746 65.5104 158.506C65.9064 158.254 66.1044 157.912 66.1044 157.48C66.1044 157.192 66.0204 156.958 65.8524 156.778C65.6964 156.586 65.4204 156.424 65.0244 156.292C64.6404 156.148 64.0644 155.992 63.2964 155.824C62.2524 155.596 61.5084 155.266 61.0644 154.834C60.6324 154.402 60.4164 153.844 60.4164 153.16C60.4164 152.704 60.5484 152.272 60.8124 151.864C61.0884 151.444 61.4844 151.108 62.0004 150.856C62.5284 150.592 63.1584 150.46 63.8904 150.46C64.6584 150.46 65.3124 150.586 65.8524 150.838C66.3924 151.09 66.7944 151.39 67.0584 151.738C67.3344 152.074 67.4724 152.356 67.4724 152.584C67.4724 152.692 67.4304 152.782 67.3464 152.854C67.2744 152.926 67.1844 152.962 67.0764 152.962H66.3204C66.1764 152.962 66.0564 152.902 65.9604 152.782C65.7684 152.554 65.6004 152.38 65.4564 152.26C65.3244 152.128 65.1264 152.014 64.8624 151.918C64.6104 151.822 64.2864 151.774 63.8904 151.774C63.3144 151.774 62.8704 151.9 62.5584 152.152C62.2464 152.392 62.0904 152.71 62.0904 153.106C62.0904 153.358 62.1564 153.574 62.2884 153.754C62.4204 153.922 62.6724 154.078 63.0444 154.222C63.4284 154.366 63.9804 154.516 64.7004 154.672C65.8404 154.912 66.6444 155.26 67.1124 155.716C67.5924 156.16 67.8324 156.73 67.8324 157.426C67.8324 157.942 67.6824 158.41 67.3824 158.83C67.0824 159.25 66.6384 159.58 66.0504 159.82C65.4744 160.06 64.7844 160.18 63.9804 160.18ZM73.7326 160C71.8366 160 70.8886 158.944 70.8886 156.832V152.08H69.4846C69.3646 152.08 69.2626 152.044 69.1786 151.972C69.1066 151.888 69.0706 151.786 69.0706 151.666V151.054C69.0706 150.934 69.1066 150.838 69.1786 150.766C69.2626 150.682 69.3646 150.64 69.4846 150.64H70.8886V147.634C70.8886 147.514 70.9246 147.418 70.9966 147.346C71.0806 147.262 71.1826 147.22 71.3026 147.22H72.1486C72.2686 147.22 72.3646 147.262 72.4366 147.346C72.5206 147.418 72.5626 147.514 72.5626 147.634V150.64H74.7946C74.9146 150.64 75.0106 150.682 75.0826 150.766C75.1666 150.838 75.2086 150.934 75.2086 151.054V151.666C75.2086 151.786 75.1666 151.888 75.0826 151.972C75.0106 152.044 74.9146 152.08 74.7946 152.08H72.5626V156.706C72.5626 157.306 72.6646 157.762 72.8686 158.074C73.0726 158.374 73.4086 158.524 73.8766 158.524H74.9746C75.0946 158.524 75.1906 158.566 75.2626 158.65C75.3466 158.722 75.3886 158.818 75.3886 158.938V159.586C75.3886 159.706 75.3466 159.808 75.2626 159.892C75.1906 159.964 75.0946 160 74.9746 160H73.7326ZM81.0339 160.18C79.7979 160.18 78.8079 159.802 78.0639 159.046C77.3319 158.278 76.9299 157.234 76.8579 155.914L76.8399 155.302L76.8579 154.708C76.9419 153.412 77.3499 152.38 78.0819 151.612C78.8259 150.844 79.8039 150.46 81.0159 150.46C82.3479 150.46 83.3799 150.886 84.1119 151.738C84.8439 152.578 85.2099 153.718 85.2099 155.158V155.464C85.2099 155.584 85.1679 155.686 85.0839 155.77C85.0119 155.842 84.9159 155.878 84.7959 155.878H78.5679V156.04C78.6039 156.82 78.8379 157.486 79.2699 158.038C79.7139 158.578 80.2959 158.848 81.0159 158.848C81.5679 158.848 82.0179 158.74 82.3659 158.524C82.7259 158.296 82.9899 158.062 83.1579 157.822C83.2659 157.678 83.3439 157.594 83.3919 157.57C83.4519 157.534 83.5539 157.516 83.6979 157.516H84.5799C84.6879 157.516 84.7779 157.546 84.8499 157.606C84.9219 157.666 84.9579 157.75 84.9579 157.858C84.9579 158.122 84.7899 158.44 84.4539 158.812C84.1299 159.184 83.6679 159.508 83.0679 159.784C82.4799 160.048 81.8019 160.18 81.0339 160.18ZM83.4999 154.636V154.582C83.4999 153.754 83.2719 153.082 82.8159 152.566C82.3719 152.038 81.7719 151.774 81.0159 151.774C80.2599 151.774 79.6599 152.038 79.2159 152.566C78.7839 153.082 78.5679 153.754 78.5679 154.582V154.636H83.4999ZM90.9622 160.18C89.7142 160.18 88.7722 159.772 88.1362 158.956C87.5002 158.14 87.1642 157.108 87.1282 155.86L87.1102 155.32L87.1282 154.78C87.1642 153.544 87.5002 152.518 88.1362 151.702C88.7722 150.874 89.7142 150.46 90.9622 150.46C92.1982 150.46 93.1702 150.898 93.8782 151.774V147.634C93.8782 147.514 93.9142 147.418 93.9862 147.346C94.0702 147.262 94.1722 147.22 94.2922 147.22H95.1562C95.2762 147.22 95.3722 147.262 95.4442 147.346C95.5282 147.418 95.5702 147.514 95.5702 147.634V159.586C95.5702 159.706 95.5282 159.808 95.4442 159.892C95.3722 159.964 95.2762 160 95.1562 160H94.3462C94.2262 160 94.1242 159.964 94.0402 159.892C93.9682 159.808 93.9322 159.706 93.9322 159.586V158.83C93.2362 159.73 92.2462 160.18 90.9622 160.18ZM91.3402 158.722C92.1682 158.722 92.7862 158.452 93.1942 157.912C93.6142 157.36 93.8422 156.706 93.8782 155.95C93.8902 155.818 93.8962 155.59 93.8962 155.266C93.8962 154.93 93.8902 154.696 93.8782 154.564C93.8542 153.856 93.6262 153.238 93.1942 152.71C92.7622 152.182 92.1442 151.918 91.3402 151.918C90.4882 151.918 89.8642 152.182 89.4682 152.71C89.0842 153.238 88.8742 153.934 88.8382 154.798L88.8202 155.32C88.8202 157.588 89.6602 158.722 91.3402 158.722ZM103.451 163.42C103.331 163.42 103.229 163.378 103.145 163.294C103.073 163.222 103.037 163.126 103.037 163.006V151.054C103.037 150.934 103.073 150.838 103.145 150.766C103.229 150.682 103.331 150.64 103.451 150.64H104.279C104.399 150.64 104.495 150.682 104.567 150.766C104.651 150.838 104.693 150.934 104.693 151.054V151.846C105.365 150.922 106.349 150.46 107.645 150.46C108.905 150.46 109.847 150.856 110.471 151.648C111.107 152.44 111.449 153.46 111.497 154.708C111.509 154.84 111.515 155.044 111.515 155.32C111.515 155.596 111.509 155.8 111.497 155.932C111.449 157.168 111.107 158.188 110.471 158.992C109.835 159.784 108.893 160.18 107.645 160.18C106.397 160.18 105.425 159.73 104.729 158.83V163.006C104.729 163.126 104.693 163.222 104.621 163.294C104.549 163.378 104.453 163.42 104.333 163.42H103.451ZM107.267 158.722C108.119 158.722 108.737 158.458 109.121 157.93C109.517 157.402 109.733 156.706 109.769 155.842C109.781 155.722 109.787 155.548 109.787 155.32C109.787 153.052 108.947 151.918 107.267 151.918C106.439 151.918 105.815 152.194 105.395 152.746C104.987 153.286 104.765 153.934 104.729 154.69L104.711 155.374L104.729 156.076C104.753 156.784 104.981 157.402 105.413 157.93C105.845 158.458 106.463 158.722 107.267 158.722ZM116.532 160.18C115.944 160.18 115.398 160.06 114.894 159.82C114.39 159.58 113.988 159.256 113.688 158.848C113.4 158.428 113.256 157.966 113.256 157.462C113.256 156.67 113.58 156.022 114.228 155.518C114.888 155.002 115.776 154.666 116.892 154.51L119.574 154.132V153.61C119.574 152.386 118.872 151.774 117.468 151.774C116.94 151.774 116.508 151.888 116.172 152.116C115.836 152.332 115.584 152.59 115.416 152.89C115.38 152.998 115.332 153.076 115.272 153.124C115.224 153.172 115.152 153.196 115.056 153.196H114.282C114.174 153.196 114.078 153.16 113.994 153.088C113.922 153.004 113.886 152.908 113.886 152.8C113.898 152.512 114.03 152.188 114.282 151.828C114.546 151.456 114.948 151.138 115.488 150.874C116.028 150.598 116.694 150.46 117.486 150.46C118.83 150.46 119.796 150.778 120.384 151.414C120.972 152.038 121.266 152.818 121.266 153.754V159.586C121.266 159.706 121.224 159.808 121.14 159.892C121.068 159.964 120.972 160 120.852 160H120.024C119.904 160 119.802 159.964 119.718 159.892C119.646 159.808 119.61 159.706 119.61 159.586V158.812C119.346 159.196 118.962 159.52 118.458 159.784C117.954 160.048 117.312 160.18 116.532 160.18ZM116.91 158.83C117.69 158.83 118.326 158.578 118.818 158.074C119.322 157.558 119.574 156.82 119.574 155.86V155.356L117.486 155.662C116.634 155.782 115.992 155.986 115.56 156.274C115.128 156.55 114.912 156.904 114.912 157.336C114.912 157.816 115.11 158.188 115.506 158.452C115.902 158.704 116.37 158.83 116.91 158.83ZM124.448 160C124.328 160 124.226 159.964 124.142 159.892C124.07 159.808 124.034 159.706 124.034 159.586V151.072C124.034 150.952 124.07 150.85 124.142 150.766C124.226 150.682 124.328 150.64 124.448 150.64H125.276C125.396 150.64 125.498 150.682 125.582 150.766C125.666 150.85 125.708 150.952 125.708 151.072V151.864C126.2 151.048 127.04 150.64 128.228 150.64H128.93C129.05 150.64 129.146 150.682 129.218 150.766C129.302 150.838 129.344 150.934 129.344 151.054V151.792C129.344 151.912 129.302 152.008 129.218 152.08C129.146 152.152 129.05 152.188 128.93 152.188H127.85C127.202 152.188 126.692 152.38 126.32 152.764C125.948 153.136 125.762 153.646 125.762 154.294V159.586C125.762 159.706 125.72 159.808 125.636 159.892C125.552 159.964 125.45 160 125.33 160H124.448ZM134.706 160C132.81 160 131.862 158.944 131.862 156.832V152.08H130.458C130.338 152.08 130.236 152.044 130.152 151.972C130.08 151.888 130.044 151.786 130.044 151.666V151.054C130.044 150.934 130.08 150.838 130.152 150.766C130.236 150.682 130.338 150.64 130.458 150.64H131.862V147.634C131.862 147.514 131.898 147.418 131.97 147.346C132.054 147.262 132.156 147.22 132.276 147.22H133.122C133.242 147.22 133.338 147.262 133.41 147.346C133.494 147.418 133.536 147.514 133.536 147.634V150.64H135.768C135.888 150.64 135.984 150.682 136.056 150.766C136.14 150.838 136.182 150.934 136.182 151.054V151.666C136.182 151.786 136.14 151.888 136.056 151.972C135.984 152.044 135.888 152.08 135.768 152.08H133.536V156.706C133.536 157.306 133.638 157.762 133.842 158.074C134.046 158.374 134.382 158.524 134.85 158.524H135.948C136.068 158.524 136.164 158.566 136.236 158.65C136.32 158.722 136.362 158.818 136.362 158.938V159.586C136.362 159.706 136.32 159.808 136.236 159.892C136.164 159.964 136.068 160 135.948 160H134.706ZM138.677 160C138.557 160 138.455 159.964 138.371 159.892C138.299 159.808 138.263 159.706 138.263 159.586V151.054C138.263 150.934 138.299 150.838 138.371 150.766C138.455 150.682 138.557 150.64 138.677 150.64H139.523C139.643 150.64 139.739 150.682 139.811 150.766C139.895 150.838 139.937 150.934 139.937 151.054V151.846C140.285 151.402 140.693 151.06 141.161 150.82C141.641 150.58 142.235 150.46 142.943 150.46C144.095 150.46 144.989 150.832 145.625 151.576C146.273 152.308 146.597 153.286 146.597 154.51V159.586C146.597 159.706 146.555 159.808 146.471 159.892C146.399 159.964 146.303 160 146.183 160H145.283C145.163 160 145.061 159.964 144.977 159.892C144.905 159.808 144.869 159.706 144.869 159.586V154.6C144.869 153.748 144.659 153.088 144.239 152.62C143.831 152.152 143.237 151.918 142.457 151.918C141.701 151.918 141.101 152.158 140.657 152.638C140.213 153.106 139.991 153.76 139.991 154.6V159.586C139.991 159.706 139.949 159.808 139.865 159.892C139.793 159.964 139.697 160 139.577 160H138.677ZM153.103 160.18C151.867 160.18 150.877 159.802 150.133 159.046C149.401 158.278 148.999 157.234 148.927 155.914L148.909 155.302L148.927 154.708C149.011 153.412 149.419 152.38 150.151 151.612C150.895 150.844 151.873 150.46 153.085 150.46C154.417 150.46 155.449 150.886 156.181 151.738C156.913 152.578 157.279 153.718 157.279 155.158V155.464C157.279 155.584 157.237 155.686 157.153 155.77C157.081 155.842 156.985 155.878 156.865 155.878H150.637V156.04C150.673 156.82 150.907 157.486 151.339 158.038C151.783 158.578 152.365 158.848 153.085 158.848C153.637 158.848 154.087 158.74 154.435 158.524C154.795 158.296 155.059 158.062 155.227 157.822C155.335 157.678 155.413 157.594 155.461 157.57C155.521 157.534 155.623 157.516 155.767 157.516H156.649C156.757 157.516 156.847 157.546 156.919 157.606C156.991 157.666 157.027 157.75 157.027 157.858C157.027 158.122 156.859 158.44 156.523 158.812C156.199 159.184 155.737 159.508 155.137 159.784C154.549 160.048 153.871 160.18 153.103 160.18ZM155.569 154.636V154.582C155.569 153.754 155.341 153.082 154.885 152.566C154.441 152.038 153.841 151.774 153.085 151.774C152.329 151.774 151.729 152.038 151.285 152.566C150.853 153.082 150.637 153.754 150.637 154.582V154.636H155.569ZM160.025 160C159.905 160 159.803 159.964 159.719 159.892C159.647 159.808 159.611 159.706 159.611 159.586V151.072C159.611 150.952 159.647 150.85 159.719 150.766C159.803 150.682 159.905 150.64 160.025 150.64H160.853C160.973 150.64 161.075 150.682 161.159 150.766C161.243 150.85 161.285 150.952 161.285 151.072V151.864C161.777 151.048 162.617 150.64 163.805 150.64H164.507C164.627 150.64 164.723 150.682 164.795 150.766C164.879 150.838 164.921 150.934 164.921 151.054V151.792C164.921 151.912 164.879 152.008 164.795 152.08C164.723 152.152 164.627 152.188 164.507 152.188H163.427C162.779 152.188 162.269 152.38 161.897 152.764C161.525 153.136 161.339 153.646 161.339 154.294V159.586C161.339 159.706 161.297 159.808 161.213 159.892C161.129 159.964 161.027 160 160.907 160H160.025ZM1.98 209C1.86 209 1.758 208.964 1.674 208.892C1.602 208.808 1.566 208.706 1.566 208.586V196.832C1.566 196.7 1.602 196.598 1.674 196.526C1.758 196.442 1.86 196.4 1.98 196.4H2.808C3.024 196.4 3.174 196.484 3.258 196.652L9.234 205.832V196.832C9.234 196.7 9.27 196.598 9.342 196.526C9.426 196.442 9.528 196.4 9.648 196.4H10.512C10.644 196.4 10.746 196.442 10.818 196.526C10.902 196.598 10.944 196.7 10.944 196.832V208.568C10.944 208.688 10.902 208.79 10.818 208.874C10.746 208.958 10.65 209 10.53 209H9.666C9.486 209 9.342 208.916 9.234 208.748L3.276 199.658V208.586C3.276 208.706 3.234 208.808 3.15 208.892C3.066 208.964 2.964 209 2.844 209H1.98ZM17.7716 209.18C16.5356 209.18 15.5456 208.802 14.8016 208.046C14.0696 207.278 13.6676 206.234 13.5956 204.914L13.5776 204.302L13.5956 203.708C13.6796 202.412 14.0876 201.38 14.8196 200.612C15.5636 199.844 16.5416 199.46 17.7536 199.46C19.0856 199.46 20.1176 199.886 20.8496 200.738C21.5816 201.578 21.9476 202.718 21.9476 204.158V204.464C21.9476 204.584 21.9056 204.686 21.8216 204.77C21.7496 204.842 21.6536 204.878 21.5336 204.878H15.3056V205.04C15.3416 205.82 15.5756 206.486 16.0076 207.038C16.4516 207.578 17.0336 207.848 17.7536 207.848C18.3056 207.848 18.7556 207.74 19.1036 207.524C19.4636 207.296 19.7276 207.062 19.8956 206.822C20.0036 206.678 20.0816 206.594 20.1296 206.57C20.1896 206.534 20.2916 206.516 20.4356 206.516H21.3176C21.4256 206.516 21.5156 206.546 21.5876 206.606C21.6596 206.666 21.6956 206.75 21.6956 206.858C21.6956 207.122 21.5276 207.44 21.1916 207.812C20.8676 208.184 20.4056 208.508 19.8056 208.784C19.2176 209.048 18.5396 209.18 17.7716 209.18ZM20.2376 203.636V203.582C20.2376 202.754 20.0096 202.082 19.5536 201.566C19.1096 201.038 18.5096 200.774 17.7536 200.774C16.9976 200.774 16.3976 201.038 15.9536 201.566C15.5216 202.082 15.3056 202.754 15.3056 203.582V203.636H20.2376ZM26.5178 209C26.3618 209 26.2418 208.964 26.1578 208.892C26.0738 208.82 26.0018 208.706 25.9418 208.55L23.3858 200.198L23.3498 200.018C23.3498 199.91 23.3858 199.82 23.4578 199.748C23.5418 199.676 23.6318 199.64 23.7278 199.64H24.5198C24.6398 199.64 24.7358 199.676 24.8078 199.748C24.8918 199.808 24.9458 199.874 24.9698 199.946L26.9678 206.732L29.1098 200.018C29.1338 199.922 29.1878 199.838 29.2718 199.766C29.3558 199.682 29.4698 199.64 29.6138 199.64H30.2258C30.3698 199.64 30.4838 199.682 30.5678 199.766C30.6518 199.838 30.7058 199.922 30.7298 200.018L32.8718 206.732L34.8698 199.946C34.8818 199.886 34.9238 199.82 34.9958 199.748C35.0798 199.676 35.1818 199.64 35.3018 199.64H36.1118C36.2078 199.64 36.2918 199.676 36.3638 199.748C36.4358 199.82 36.4718 199.91 36.4718 200.018L36.4358 200.198L33.8978 208.55C33.8378 208.706 33.7658 208.82 33.6818 208.892C33.5978 208.964 33.4718 209 33.3038 209H32.6018C32.2778 209 32.0798 208.85 32.0078 208.55L29.9198 202.106L27.8318 208.55C27.7358 208.85 27.5318 209 27.2198 209H26.5178ZM46.3077 209.18C45.1677 209.18 44.2857 208.814 43.6617 208.082C43.0377 207.338 42.7257 206.354 42.7257 205.13V200.054C42.7257 199.934 42.7617 199.838 42.8337 199.766C42.9177 199.682 43.0197 199.64 43.1397 199.64H44.0397C44.1597 199.64 44.2557 199.682 44.3277 199.766C44.4117 199.838 44.4537 199.934 44.4537 200.054V205.04C44.4537 206.828 45.2337 207.722 46.7937 207.722C47.5497 207.722 48.1497 207.488 48.5937 207.02C49.0377 206.54 49.2597 205.88 49.2597 205.04V200.054C49.2597 199.934 49.2957 199.838 49.3677 199.766C49.4517 199.682 49.5537 199.64 49.6737 199.64H50.5737C50.6937 199.64 50.7897 199.682 50.8617 199.766C50.9337 199.838 50.9697 199.934 50.9697 200.054V208.586C50.9697 208.706 50.9337 208.808 50.8617 208.892C50.7897 208.964 50.6937 209 50.5737 209H49.7277C49.6077 209 49.5057 208.964 49.4217 208.892C49.3497 208.808 49.3137 208.706 49.3137 208.586V207.794C48.9777 208.25 48.5697 208.598 48.0897 208.838C47.6097 209.066 47.0157 209.18 46.3077 209.18ZM57.0638 209.18C56.2238 209.18 55.5158 209.048 54.9398 208.784C54.3758 208.508 53.9498 208.196 53.6618 207.848C53.3858 207.5 53.2478 207.212 53.2478 206.984C53.2478 206.864 53.2898 206.774 53.3738 206.714C53.4698 206.642 53.5658 206.606 53.6618 206.606H54.4718C54.5918 206.606 54.6998 206.666 54.7958 206.786C55.0838 207.122 55.3958 207.386 55.7318 207.578C56.0678 207.77 56.5178 207.866 57.0818 207.866C57.7058 207.866 58.2098 207.746 58.5938 207.506C58.9898 207.254 59.1878 206.912 59.1878 206.48C59.1878 206.192 59.1038 205.958 58.9358 205.778C58.7798 205.586 58.5038 205.424 58.1078 205.292C57.7238 205.148 57.1478 204.992 56.3798 204.824C55.3358 204.596 54.5918 204.266 54.1478 203.834C53.7158 203.402 53.4998 202.844 53.4998 202.16C53.4998 201.704 53.6318 201.272 53.8958 200.864C54.1718 200.444 54.5678 200.108 55.0838 199.856C55.6118 199.592 56.2418 199.46 56.9738 199.46C57.7418 199.46 58.3958 199.586 58.9358 199.838C59.4758 200.09 59.8778 200.39 60.1418 200.738C60.4178 201.074 60.5558 201.356 60.5558 201.584C60.5558 201.692 60.5138 201.782 60.4298 201.854C60.3578 201.926 60.2678 201.962 60.1598 201.962H59.4038C59.2598 201.962 59.1398 201.902 59.0438 201.782C58.8518 201.554 58.6838 201.38 58.5398 201.26C58.4078 201.128 58.2098 201.014 57.9458 200.918C57.6938 200.822 57.3698 200.774 56.9738 200.774C56.3978 200.774 55.9538 200.9 55.6418 201.152C55.3298 201.392 55.1738 201.71 55.1738 202.106C55.1738 202.358 55.2398 202.574 55.3718 202.754C55.5038 202.922 55.7558 203.078 56.1278 203.222C56.5118 203.366 57.0638 203.516 57.7838 203.672C58.9238 203.912 59.7278 204.26 60.1958 204.716C60.6758 205.16 60.9158 205.73 60.9158 206.426C60.9158 206.942 60.7658 207.41 60.4658 207.83C60.1658 208.25 59.7218 208.58 59.1338 208.82C58.5578 209.06 57.8678 209.18 57.0638 209.18ZM66.9236 209.18C65.6876 209.18 64.6976 208.802 63.9536 208.046C63.2216 207.278 62.8196 206.234 62.7476 204.914L62.7296 204.302L62.7476 203.708C62.8316 202.412 63.2396 201.38 63.9716 200.612C64.7156 199.844 65.6936 199.46 66.9056 199.46C68.2376 199.46 69.2696 199.886 70.0016 200.738C70.7336 201.578 71.0996 202.718 71.0996 204.158V204.464C71.0996 204.584 71.0576 204.686 70.9736 204.77C70.9016 204.842 70.8056 204.878 70.6856 204.878H64.4576V205.04C64.4936 205.82 64.7276 206.486 65.1596 207.038C65.6036 207.578 66.1856 207.848 66.9056 207.848C67.4576 207.848 67.9076 207.74 68.2556 207.524C68.6156 207.296 68.8796 207.062 69.0476 206.822C69.1556 206.678 69.2336 206.594 69.2816 206.57C69.3416 206.534 69.4436 206.516 69.5876 206.516H70.4696C70.5776 206.516 70.6676 206.546 70.7396 206.606C70.8116 206.666 70.8476 206.75 70.8476 206.858C70.8476 207.122 70.6796 207.44 70.3436 207.812C70.0196 208.184 69.5576 208.508 68.9576 208.784C68.3696 209.048 67.6916 209.18 66.9236 209.18ZM69.3896 203.636V203.582C69.3896 202.754 69.1616 202.082 68.7056 201.566C68.2616 201.038 67.6616 200.774 66.9056 200.774C66.1496 200.774 65.5496 201.038 65.1056 201.566C64.6736 202.082 64.4576 202.754 64.4576 203.582V203.636H69.3896ZM73.8458 209C73.7258 209 73.6238 208.964 73.5398 208.892C73.4678 208.808 73.4318 208.706 73.4318 208.586V200.072C73.4318 199.952 73.4678 199.85 73.5398 199.766C73.6238 199.682 73.7258 199.64 73.8458 199.64H74.6738C74.7938 199.64 74.8958 199.682 74.9798 199.766C75.0638 199.85 75.1058 199.952 75.1058 200.072V200.864C75.5978 200.048 76.4378 199.64 77.6258 199.64H78.3278C78.4478 199.64 78.5438 199.682 78.6158 199.766C78.6998 199.838 78.7418 199.934 78.7418 200.054V200.792C78.7418 200.912 78.6998 201.008 78.6158 201.08C78.5438 201.152 78.4478 201.188 78.3278 201.188H77.2478C76.5998 201.188 76.0898 201.38 75.7178 201.764C75.3458 202.136 75.1598 202.646 75.1598 203.294V208.586C75.1598 208.706 75.1178 208.808 75.0338 208.892C74.9498 208.964 74.8478 209 74.7278 209H73.8458ZM83.6897 209.18C82.8497 209.18 82.1417 209.048 81.5657 208.784C81.0017 208.508 80.5757 208.196 80.2877 207.848C80.0117 207.5 79.8737 207.212 79.8737 206.984C79.8737 206.864 79.9157 206.774 79.9997 206.714C80.0957 206.642 80.1917 206.606 80.2877 206.606H81.0977C81.2177 206.606 81.3257 206.666 81.4217 206.786C81.7097 207.122 82.0217 207.386 82.3577 207.578C82.6937 207.77 83.1437 207.866 83.7077 207.866C84.3317 207.866 84.8357 207.746 85.2197 207.506C85.6157 207.254 85.8137 206.912 85.8137 206.48C85.8137 206.192 85.7297 205.958 85.5617 205.778C85.4057 205.586 85.1297 205.424 84.7337 205.292C84.3497 205.148 83.7737 204.992 83.0057 204.824C81.9617 204.596 81.2177 204.266 80.7737 203.834C80.3417 203.402 80.1257 202.844 80.1257 202.16C80.1257 201.704 80.2577 201.272 80.5217 200.864C80.7977 200.444 81.1937 200.108 81.7097 199.856C82.2377 199.592 82.8677 199.46 83.5997 199.46C84.3677 199.46 85.0217 199.586 85.5617 199.838C86.1017 200.09 86.5037 200.39 86.7677 200.738C87.0437 201.074 87.1817 201.356 87.1817 201.584C87.1817 201.692 87.1397 201.782 87.0557 201.854C86.9837 201.926 86.8937 201.962 86.7857 201.962H86.0297C85.8857 201.962 85.7657 201.902 85.6697 201.782C85.4777 201.554 85.3097 201.38 85.1657 201.26C85.0337 201.128 84.8357 201.014 84.5717 200.918C84.3197 200.822 83.9957 200.774 83.5997 200.774C83.0237 200.774 82.5797 200.9 82.2677 201.152C81.9557 201.392 81.7997 201.71 81.7997 202.106C81.7997 202.358 81.8657 202.574 81.9977 202.754C82.1297 202.922 82.3817 203.078 82.7537 203.222C83.1377 203.366 83.6897 203.516 84.4097 203.672C85.5497 203.912 86.3537 204.26 86.8217 204.716C87.3017 205.16 87.5417 205.73 87.5417 206.426C87.5417 206.942 87.3917 207.41 87.0917 207.83C86.7917 208.25 86.3477 208.58 85.7597 208.82C85.1837 209.06 84.4937 209.18 83.6897 209.18ZM95.0456 209C94.9256 209 94.8236 208.964 94.7396 208.892C94.6676 208.808 94.6316 208.706 94.6316 208.586V196.832C94.6316 196.7 94.6676 196.598 94.7396 196.526C94.8236 196.442 94.9256 196.4 95.0456 196.4H102.39C102.522 196.4 102.624 196.442 102.696 196.526C102.78 196.598 102.822 196.7 102.822 196.832V197.552C102.822 197.672 102.78 197.774 102.696 197.858C102.624 197.93 102.522 197.966 102.39 197.966H96.3776V202.16H102.03C102.162 202.16 102.264 202.202 102.336 202.286C102.42 202.358 102.462 202.46 102.462 202.592V203.312C102.462 203.432 102.42 203.534 102.336 203.618C102.252 203.69 102.15 203.726 102.03 203.726H96.3776V208.586C96.3776 208.706 96.3356 208.808 96.2516 208.892C96.1676 208.964 96.0656 209 95.9456 209H95.0456ZM103.704 209C103.608 209 103.524 208.964 103.452 208.892C103.38 208.82 103.344 208.736 103.344 208.64C103.344 208.544 103.35 208.478 103.362 208.442L107.826 196.796C107.922 196.532 108.114 196.4 108.402 196.4H109.626C109.914 196.4 110.106 196.532 110.202 196.796L114.648 208.442L114.684 208.64C114.684 208.736 114.648 208.82 114.576 208.892C114.504 208.964 114.42 209 114.324 209H113.406C113.274 209 113.172 208.97 113.1 208.91C113.028 208.838 112.98 208.766 112.956 208.694L111.966 206.138H106.062L105.072 208.694C105.048 208.766 104.994 208.838 104.91 208.91C104.838 208.97 104.742 209 104.622 209H103.704ZM111.444 204.59L109.014 198.2L106.584 204.59H111.444ZM124.678 210.17C124.546 210.17 124.432 210.128 124.336 210.044C124.24 209.972 124.15 209.876 124.066 209.756L123.328 208.748C122.704 209.036 121.954 209.18 121.078 209.18C119.518 209.18 118.306 208.772 117.442 207.956C116.59 207.128 116.14 205.886 116.092 204.23C116.08 203.87 116.074 203.36 116.074 202.7C116.074 202.04 116.08 201.536 116.092 201.188C116.14 199.568 116.608 198.338 117.496 197.498C118.384 196.646 119.578 196.22 121.078 196.22C122.59 196.22 123.784 196.646 124.66 197.498C125.548 198.338 126.016 199.568 126.064 201.188C126.088 201.884 126.1 202.388 126.1 202.7C126.1 203 126.088 203.51 126.064 204.23C126.016 205.874 125.584 207.104 124.768 207.92L125.956 209.612C125.992 209.684 126.01 209.75 126.01 209.81V209.846C126.01 209.93 125.974 210.002 125.902 210.062C125.83 210.134 125.746 210.17 125.65 210.17H124.678ZM121.078 207.65C122.026 207.65 122.782 207.362 123.346 206.786C123.922 206.21 124.234 205.328 124.282 204.14C124.306 203.42 124.318 202.94 124.318 202.7C124.318 202.436 124.306 201.956 124.282 201.26C124.234 200.072 123.922 199.19 123.346 198.614C122.782 198.038 122.026 197.75 121.078 197.75C120.13 197.75 119.374 198.038 118.81 198.614C118.246 199.19 117.94 200.072 117.892 201.26C117.88 201.608 117.874 202.088 117.874 202.7C117.874 203.3 117.88 203.78 117.892 204.14C117.94 205.328 118.246 206.21 118.81 206.786C119.374 207.362 120.13 207.65 121.078 207.65Z" fill="#37383D"/>
</svg>
