<svg width="23" height="20" viewBox="0 0 23 20" fill="none" xmlns="http://www.w3.org/2000/svg">
<g id="Icons=Star">
<g id="Star">
<path id="Fill 1" d="M12.6651 2.72233L14.7524 6.40761C14.9062 6.67461 15.1997 6.86002 15.5382 6.90123L20.2267 7.50116C20.5005 7.53494 20.749 7.66185 20.9168 7.85551C21.0828 8.0467 21.1541 8.28898 21.1138 8.52713C21.0809 8.72491 20.975 8.90786 20.8128 9.04795L17.4155 11.9413C17.167 12.1432 17.0544 12.4423 17.1145 12.7349L17.9509 16.8025C18.04 17.2937 17.6696 17.7568 17.1145 17.8499C16.8857 17.8821 16.6512 17.8483 16.4449 17.756L12.2628 15.8417C11.9524 15.704 11.5858 15.704 11.2754 15.8417L7.09325 17.756C6.57939 17.9958 5.94269 17.8326 5.65669 17.3876C5.55073 17.2104 5.51322 17.0085 5.54792 16.8116L6.38435 12.7431C6.44436 12.4514 6.3309 12.1506 6.08334 11.9487L2.68605 9.05702C2.2819 8.7142 2.26971 8.14971 2.65886 7.79453C2.6673 7.78711 2.67668 7.77887 2.68605 7.77063C2.84734 7.62642 3.05926 7.53494 3.28806 7.51105L7.97656 6.91029C8.31414 6.86826 8.60764 6.6845 8.76236 6.41585L10.7747 2.72233C10.9538 2.40588 11.3251 2.20893 11.7283 2.21717H11.854C12.2037 2.25425 12.5085 2.44461 12.6651 2.72233Z" fill="#FAC412"/>
<path id="Fill 4" d="M11.7423 15.739C11.5607 15.744 11.3838 15.7868 11.2247 15.8635L7.06296 17.7735C6.55375 17.987 5.94438 17.8213 5.65888 17.3935C5.55311 17.2187 5.51473 17.0184 5.5503 16.8222L6.38151 12.7624C6.43768 12.4672 6.32535 12.1672 6.08104 11.9595L2.68223 9.06851C2.27879 8.72146 2.2713 8.15185 2.66631 7.79656C2.67193 7.79161 2.67661 7.78749 2.68223 7.78337C2.84323 7.64323 3.05103 7.55091 3.27475 7.52206L7.96719 6.91535C8.30698 6.87743 8.60184 6.69113 8.7516 6.42074L10.7913 2.68074C10.985 2.37903 11.3566 2.19932 11.7498 2.21828C11.7423 2.46311 11.7423 15.5725 11.7423 15.739Z" fill="#FAC412"/>
</g>
</g>
</svg>
