<svg width="122" height="211" viewBox="0 0 122 211" fill="none" xmlns="http://www.w3.org/2000/svg">
<path d="M5.778 14.18C4.71 14.18 3.792 14.018 3.024 13.694C2.256 13.37 1.674 12.944 1.278 12.416C0.882 11.888 0.672 11.318 0.648 10.706C0.648 10.598 0.684 10.508 0.756 10.436C0.828 10.364 0.918 10.328 1.026 10.328H2.628C2.772 10.328 2.88 10.358 2.952 10.418C3.036 10.466 3.114 10.55 3.186 10.67C3.306 11.078 3.582 11.42 4.014 11.696C4.446 11.972 5.034 12.11 5.778 12.11C6.63 12.11 7.272 11.972 7.704 11.696C8.136 11.408 8.352 11.012 8.352 10.508C8.352 10.172 8.238 9.896 8.01 9.68C7.794 9.464 7.464 9.278 7.02 9.122C6.588 8.966 5.94 8.774 5.076 8.546C3.66 8.21 2.622 7.766 1.962 7.214C1.314 6.65 0.99 5.852 0.99 4.82C0.99 4.124 1.176 3.506 1.548 2.966C1.932 2.426 2.478 2 3.186 1.688C3.906 1.376 4.74 1.22 5.688 1.22C6.672 1.22 7.524 1.394 8.244 1.742C8.964 2.09 9.51 2.528 9.882 3.056C10.266 3.572 10.47 4.088 10.494 4.604C10.494 4.712 10.458 4.802 10.386 4.874C10.314 4.946 10.224 4.982 10.116 4.982H8.442C8.19 4.982 8.016 4.868 7.92 4.64C7.848 4.256 7.608 3.938 7.2 3.686C6.792 3.422 6.288 3.29 5.688 3.29C5.016 3.29 4.488 3.416 4.104 3.668C3.72 3.92 3.528 4.286 3.528 4.766C3.528 5.102 3.624 5.378 3.816 5.594C4.008 5.81 4.308 6.002 4.716 6.17C5.136 6.338 5.736 6.524 6.516 6.728C7.572 6.968 8.412 7.238 9.036 7.538C9.672 7.838 10.14 8.216 10.44 8.672C10.74 9.128 10.89 9.71 10.89 10.418C10.89 11.186 10.674 11.858 10.242 12.434C9.822 12.998 9.222 13.43 8.442 13.73C7.674 14.03 6.786 14.18 5.778 14.18ZM16.9488 14.18C15.6168 14.18 14.5548 13.796 13.7628 13.028C12.9828 12.248 12.5688 11.156 12.5208 9.752L12.5028 9.302L12.5208 8.852C12.5808 7.484 13.0008 6.41 13.7808 5.63C14.5728 4.85 15.6288 4.46 16.9488 4.46C18.3648 4.46 19.4568 4.892 20.2248 5.756C21.0048 6.62 21.3948 7.772 21.3948 9.212V9.59C21.3948 9.71 21.3528 9.812 21.2688 9.896C21.1848 9.98 21.0768 10.022 20.9448 10.022H14.9688V10.166C14.9928 10.826 15.1728 11.384 15.5088 11.84C15.8568 12.284 16.3308 12.506 16.9308 12.506C17.6388 12.506 18.2088 12.23 18.6408 11.678C18.7488 11.546 18.8328 11.462 18.8928 11.426C18.9648 11.39 19.0668 11.372 19.1988 11.372H20.7468C20.8548 11.372 20.9448 11.408 21.0168 11.48C21.1008 11.54 21.1428 11.618 21.1428 11.714C21.1428 12.002 20.9688 12.344 20.6208 12.74C20.2848 13.124 19.7988 13.46 19.1628 13.748C18.5268 14.036 17.7888 14.18 16.9488 14.18ZM18.9468 8.51V8.456C18.9468 7.748 18.7668 7.178 18.4068 6.746C18.0588 6.314 17.5728 6.098 16.9488 6.098C16.3248 6.098 15.8388 6.314 15.4908 6.746C15.1428 7.178 14.9688 7.748 14.9688 8.456V8.51H18.9468ZM23.9175 14C23.7975 14 23.6955 13.958 23.6115 13.874C23.5275 13.79 23.4855 13.688 23.4855 13.568V5.09C23.4855 4.97 23.5275 4.868 23.6115 4.784C23.6955 4.688 23.7975 4.64 23.9175 4.64H25.3755C25.5075 4.64 25.6155 4.682 25.6995 4.766C25.7835 4.85 25.8255 4.958 25.8255 5.09V5.828C26.1135 5.444 26.4735 5.15 26.9055 4.946C27.3495 4.742 27.8535 4.64 28.4175 4.64H29.1555C29.2875 4.64 29.3895 4.682 29.4615 4.766C29.5455 4.838 29.5875 4.94 29.5875 5.072V6.368C29.5875 6.488 29.5455 6.59 29.4615 6.674C29.3895 6.758 29.2875 6.8 29.1555 6.8H27.7515C27.1875 6.8 26.7435 6.962 26.4195 7.286C26.0955 7.61 25.9335 8.054 25.9335 8.618V13.568C25.9335 13.688 25.8915 13.79 25.8075 13.874C25.7235 13.958 25.6155 14 25.4835 14H23.9175ZM34.4834 14C34.3034 14 34.1654 13.964 34.0694 13.892C33.9734 13.808 33.8954 13.694 33.8354 13.55L30.4694 5.198L30.4334 5.036C30.4334 4.928 30.4694 4.838 30.5414 4.766C30.6254 4.682 30.7214 4.64 30.8294 4.64H32.2874C32.5154 4.64 32.6714 4.754 32.7554 4.982L35.1494 11.3L37.5434 4.982C37.5794 4.898 37.6334 4.82 37.7054 4.748C37.7894 4.676 37.8914 4.64 38.0114 4.64H39.4874C39.5834 4.64 39.6674 4.682 39.7394 4.766C39.8234 4.838 39.8654 4.928 39.8654 5.036C39.8654 5.108 39.8594 5.162 39.8474 5.198L36.4634 13.55C36.4034 13.694 36.3254 13.808 36.2294 13.892C36.1334 13.964 35.9954 14 35.8154 14H34.4834ZM42.0473 3.092C41.9273 3.092 41.8253 3.05 41.7413 2.966C41.6573 2.882 41.6153 2.78 41.6153 2.66V1.364C41.6153 1.244 41.6573 1.142 41.7413 1.058C41.8253 0.974 41.9273 0.932 42.0473 0.932H43.6853C43.8053 0.932 43.9073 0.974 43.9913 1.058C44.0873 1.142 44.1353 1.244 44.1353 1.364V2.66C44.1353 2.78 44.0933 2.882 44.0093 2.966C43.9253 3.05 43.8173 3.092 43.6853 3.092H42.0473ZM42.1193 14C41.9993 14 41.8973 13.958 41.8133 13.874C41.7293 13.79 41.6873 13.688 41.6873 13.568V5.072C41.6873 4.952 41.7293 4.85 41.8133 4.766C41.8973 4.682 41.9993 4.64 42.1193 4.64H43.6133C43.7453 4.64 43.8473 4.682 43.9193 4.766C44.0033 4.838 44.0453 4.94 44.0453 5.072V13.568C44.0453 13.688 44.0033 13.79 43.9193 13.874C43.8473 13.958 43.7453 14 43.6133 14H42.1193ZM50.6634 14.18C49.3434 14.18 48.2874 13.814 47.4954 13.082C46.7154 12.35 46.3014 11.336 46.2534 10.04L46.2354 9.32L46.2534 8.6C46.3014 7.304 46.7154 6.29 47.4954 5.558C48.2874 4.826 49.3434 4.46 50.6634 4.46C51.5994 4.46 52.3914 4.628 53.0394 4.964C53.6994 5.3 54.1854 5.714 54.4974 6.206C54.8214 6.686 54.9954 7.142 55.0194 7.574C55.0314 7.694 54.9894 7.796 54.8934 7.88C54.8094 7.964 54.7074 8.006 54.5874 8.006H53.0034C52.8834 8.006 52.7874 7.982 52.7154 7.934C52.6554 7.874 52.5954 7.778 52.5354 7.646C52.3554 7.178 52.1154 6.842 51.8154 6.638C51.5274 6.434 51.1554 6.332 50.6994 6.332C50.0874 6.332 49.6074 6.53 49.2594 6.926C48.9114 7.31 48.7254 7.898 48.7014 8.69L48.6834 9.356L48.7014 9.95C48.7494 11.522 49.4154 12.308 50.6994 12.308C51.1674 12.308 51.5454 12.206 51.8334 12.002C52.1214 11.798 52.3554 11.462 52.5354 10.994C52.5954 10.862 52.6554 10.772 52.7154 10.724C52.7874 10.664 52.8834 10.634 53.0034 10.634H54.5874C54.7074 10.634 54.8094 10.676 54.8934 10.76C54.9894 10.844 55.0314 10.946 55.0194 11.066C54.9954 11.486 54.8274 11.936 54.5154 12.416C54.2034 12.896 53.7234 13.31 53.0754 13.658C52.4274 14.006 51.6234 14.18 50.6634 14.18ZM61.1086 14.18C59.7766 14.18 58.7146 13.796 57.9226 13.028C57.1426 12.248 56.7286 11.156 56.6806 9.752L56.6626 9.302L56.6806 8.852C56.7406 7.484 57.1606 6.41 57.9406 5.63C58.7326 4.85 59.7886 4.46 61.1086 4.46C62.5246 4.46 63.6166 4.892 64.3846 5.756C65.1646 6.62 65.5546 7.772 65.5546 9.212V9.59C65.5546 9.71 65.5126 9.812 65.4286 9.896C65.3446 9.98 65.2366 10.022 65.1046 10.022H59.1286V10.166C59.1526 10.826 59.3326 11.384 59.6686 11.84C60.0166 12.284 60.4906 12.506 61.0906 12.506C61.7986 12.506 62.3686 12.23 62.8006 11.678C62.9086 11.546 62.9926 11.462 63.0526 11.426C63.1246 11.39 63.2266 11.372 63.3586 11.372H64.9066C65.0146 11.372 65.1046 11.408 65.1766 11.48C65.2606 11.54 65.3026 11.618 65.3026 11.714C65.3026 12.002 65.1286 12.344 64.7806 12.74C64.4446 13.124 63.9586 13.46 63.3226 13.748C62.6866 14.036 61.9486 14.18 61.1086 14.18ZM63.1066 8.51V8.456C63.1066 7.748 62.9266 7.178 62.5666 6.746C62.2186 6.314 61.7326 6.098 61.1086 6.098C60.4846 6.098 59.9986 6.314 59.6506 6.746C59.3026 7.178 59.1286 7.748 59.1286 8.456V8.51H63.1066ZM1.98 63C1.86 63 1.758 62.964 1.674 62.892C1.602 62.808 1.566 62.706 1.566 62.586V50.832C1.566 50.7 1.602 50.598 1.674 50.526C1.758 50.442 1.86 50.4 1.98 50.4H2.898C3.03 50.4 3.132 50.442 3.204 50.526C3.288 50.598 3.33 50.7 3.33 50.832V55.8H9.522V50.832C9.522 50.7 9.558 50.598 9.63 50.526C9.714 50.442 9.816 50.4 9.936 50.4H10.854C10.986 50.4 11.088 50.442 11.16 50.526C11.244 50.598 11.286 50.7 11.286 50.832V62.586C11.286 62.706 11.244 62.808 11.16 62.892C11.076 62.964 10.974 63 10.854 63H9.936C9.816 63 9.714 62.964 9.63 62.892C9.558 62.808 9.522 62.706 9.522 62.586V57.42H3.33V62.586C3.33 62.706 3.288 62.808 3.204 62.892C3.12 62.964 3.018 63 2.898 63H1.98ZM18.1956 63.18C16.8756 63.18 15.8496 62.808 15.1176 62.064C14.3976 61.32 14.0136 60.33 13.9656 59.094L13.9476 58.32L13.9656 57.546C14.0136 56.322 14.4036 55.338 15.1356 54.594C15.8676 53.838 16.8876 53.46 18.1956 53.46C19.5036 53.46 20.5236 53.838 21.2556 54.594C21.9876 55.338 22.3776 56.322 22.4256 57.546C22.4376 57.678 22.4436 57.936 22.4436 58.32C22.4436 58.704 22.4376 58.962 22.4256 59.094C22.3776 60.33 21.9876 61.32 21.2556 62.064C20.5356 62.808 19.5156 63.18 18.1956 63.18ZM18.1956 61.794C18.9516 61.794 19.5456 61.554 19.9776 61.074C20.4216 60.594 20.6616 59.904 20.6976 59.004C20.7096 58.884 20.7156 58.656 20.7156 58.32C20.7156 57.984 20.7096 57.756 20.6976 57.636C20.6616 56.736 20.4216 56.046 19.9776 55.566C19.5456 55.086 18.9516 54.846 18.1956 54.846C17.4396 54.846 16.8396 55.086 16.3956 55.566C15.9516 56.046 15.7176 56.736 15.6936 57.636L15.6756 58.32L15.6936 59.004C15.7176 59.904 15.9516 60.594 16.3956 61.074C16.8396 61.554 17.4396 61.794 18.1956 61.794ZM27.1155 63C26.9595 63 26.8395 62.964 26.7555 62.892C26.6715 62.82 26.5995 62.706 26.5395 62.55L23.9835 54.198L23.9475 54.018C23.9475 53.91 23.9835 53.82 24.0555 53.748C24.1395 53.676 24.2295 53.64 24.3255 53.64H25.1175C25.2375 53.64 25.3335 53.676 25.4055 53.748C25.4895 53.808 25.5435 53.874 25.5675 53.946L27.5655 60.732L29.7075 54.018C29.7315 53.922 29.7855 53.838 29.8695 53.766C29.9535 53.682 30.0675 53.64 30.2115 53.64H30.8235C30.9675 53.64 31.0815 53.682 31.1655 53.766C31.2495 53.838 31.3035 53.922 31.3275 54.018L33.4695 60.732L35.4675 53.946C35.4795 53.886 35.5215 53.82 35.5935 53.748C35.6775 53.676 35.7795 53.64 35.8995 53.64H36.7095C36.8055 53.64 36.8895 53.676 36.9615 53.748C37.0335 53.82 37.0695 53.91 37.0695 54.018L37.0335 54.198L34.4955 62.55C34.4355 62.706 34.3635 62.82 34.2795 62.892C34.1955 62.964 34.0695 63 33.9015 63H33.1995C32.8755 63 32.6775 62.85 32.6055 62.55L30.5175 56.106L28.4295 62.55C28.3335 62.85 28.1295 63 27.8175 63H27.1155ZM43.6833 51.894C43.5633 51.894 43.4613 51.858 43.3773 51.786C43.3053 51.702 43.2693 51.6 43.2693 51.48V50.508C43.2693 50.388 43.3053 50.286 43.3773 50.202C43.4613 50.118 43.5633 50.076 43.6833 50.076H44.8173C44.9373 50.076 45.0393 50.118 45.1233 50.202C45.2073 50.286 45.2493 50.388 45.2493 50.508V51.48C45.2493 51.6 45.2073 51.702 45.1233 51.786C45.0393 51.858 44.9373 51.894 44.8173 51.894H43.6833ZM43.8273 63C43.7073 63 43.6053 62.964 43.5213 62.892C43.4493 62.808 43.4133 62.706 43.4133 62.586V54.054C43.4133 53.934 43.4493 53.838 43.5213 53.766C43.6053 53.682 43.7073 53.64 43.8273 53.64H44.6913C44.8113 53.64 44.9073 53.682 44.9793 53.766C45.0633 53.838 45.1053 53.934 45.1053 54.054V62.586C45.1053 62.706 45.0633 62.808 44.9793 62.892C44.9073 62.964 44.8113 63 44.6913 63H43.8273ZM51.6067 63C49.7107 63 48.7627 61.944 48.7627 59.832V55.08H47.3587C47.2387 55.08 47.1367 55.044 47.0527 54.972C46.9807 54.888 46.9447 54.786 46.9447 54.666V54.054C46.9447 53.934 46.9807 53.838 47.0527 53.766C47.1367 53.682 47.2387 53.64 47.3587 53.64H48.7627V50.634C48.7627 50.514 48.7987 50.418 48.8707 50.346C48.9547 50.262 49.0567 50.22 49.1767 50.22H50.0227C50.1427 50.22 50.2387 50.262 50.3107 50.346C50.3947 50.418 50.4367 50.514 50.4367 50.634V53.64H52.6687C52.7887 53.64 52.8847 53.682 52.9567 53.766C53.0407 53.838 53.0827 53.934 53.0827 54.054V54.666C53.0827 54.786 53.0407 54.888 52.9567 54.972C52.8847 55.044 52.7887 55.08 52.6687 55.08H50.4367V59.706C50.4367 60.306 50.5387 60.762 50.7427 61.074C50.9467 61.374 51.2827 61.524 51.7507 61.524H52.8487C52.9687 61.524 53.0647 61.566 53.1367 61.65C53.2207 61.722 53.2627 61.818 53.2627 61.938V62.586C53.2627 62.706 53.2207 62.808 53.1367 62.892C53.0647 62.964 52.9687 63 52.8487 63H51.6067ZM61.8182 63C61.6622 63 61.5422 62.964 61.4582 62.892C61.3742 62.82 61.3022 62.706 61.2422 62.55L58.6862 54.198L58.6502 54.018C58.6502 53.91 58.6862 53.82 58.7582 53.748C58.8422 53.676 58.9322 53.64 59.0282 53.64H59.8202C59.9402 53.64 60.0362 53.676 60.1082 53.748C60.1922 53.808 60.2462 53.874 60.2702 53.946L62.2682 60.732L64.4102 54.018C64.4342 53.922 64.4882 53.838 64.5722 53.766C64.6562 53.682 64.7702 53.64 64.9142 53.64H65.5262C65.6702 53.64 65.7842 53.682 65.8682 53.766C65.9522 53.838 66.0062 53.922 66.0302 54.018L68.1722 60.732L70.1702 53.946C70.1822 53.886 70.2242 53.82 70.2962 53.748C70.3802 53.676 70.4822 53.64 70.6022 53.64H71.4122C71.5082 53.64 71.5922 53.676 71.6642 53.748C71.7362 53.82 71.7722 53.91 71.7722 54.018L71.7362 54.198L69.1982 62.55C69.1382 62.706 69.0662 62.82 68.9822 62.892C68.8982 62.964 68.7722 63 68.6042 63H67.9022C67.5782 63 67.3802 62.85 67.3082 62.55L65.2202 56.106L63.1322 62.55C63.0362 62.85 62.8322 63 62.5202 63H61.8182ZM77.5337 63.18C76.2137 63.18 75.1877 62.808 74.4557 62.064C73.7357 61.32 73.3517 60.33 73.3037 59.094L73.2857 58.32L73.3037 57.546C73.3517 56.322 73.7417 55.338 74.4737 54.594C75.2057 53.838 76.2257 53.46 77.5337 53.46C78.8417 53.46 79.8617 53.838 80.5937 54.594C81.3257 55.338 81.7157 56.322 81.7637 57.546C81.7757 57.678 81.7817 57.936 81.7817 58.32C81.7817 58.704 81.7757 58.962 81.7637 59.094C81.7157 60.33 81.3257 61.32 80.5937 62.064C79.8737 62.808 78.8537 63.18 77.5337 63.18ZM77.5337 61.794C78.2897 61.794 78.8837 61.554 79.3157 61.074C79.7597 60.594 79.9997 59.904 80.0357 59.004C80.0477 58.884 80.0537 58.656 80.0537 58.32C80.0537 57.984 80.0477 57.756 80.0357 57.636C79.9997 56.736 79.7597 56.046 79.3157 55.566C78.8837 55.086 78.2897 54.846 77.5337 54.846C76.7777 54.846 76.1777 55.086 75.7337 55.566C75.2897 56.046 75.0557 56.736 75.0317 57.636L75.0137 58.32L75.0317 59.004C75.0557 59.904 75.2897 60.594 75.7337 61.074C76.1777 61.554 76.7777 61.794 77.5337 61.794ZM84.6297 63C84.5097 63 84.4077 62.964 84.3237 62.892C84.2517 62.808 84.2157 62.706 84.2157 62.586V54.072C84.2157 53.952 84.2517 53.85 84.3237 53.766C84.4077 53.682 84.5097 53.64 84.6297 53.64H85.4577C85.5777 53.64 85.6797 53.682 85.7637 53.766C85.8477 53.85 85.8897 53.952 85.8897 54.072V54.864C86.3817 54.048 87.2217 53.64 88.4097 53.64H89.1117C89.2317 53.64 89.3277 53.682 89.3997 53.766C89.4837 53.838 89.5257 53.934 89.5257 54.054V54.792C89.5257 54.912 89.4837 55.008 89.3997 55.08C89.3277 55.152 89.2317 55.188 89.1117 55.188H88.0317C87.3837 55.188 86.8737 55.38 86.5017 55.764C86.1297 56.136 85.9437 56.646 85.9437 57.294V62.586C85.9437 62.706 85.9017 62.808 85.8177 62.892C85.7337 62.964 85.6317 63 85.5117 63H84.6297ZM91.6656 63C91.5456 63 91.4436 62.964 91.3596 62.892C91.2876 62.808 91.2516 62.706 91.2516 62.586V50.634C91.2516 50.514 91.2876 50.418 91.3596 50.346C91.4436 50.262 91.5456 50.22 91.6656 50.22H92.5116C92.6316 50.22 92.7276 50.262 92.7996 50.346C92.8836 50.418 92.9256 50.514 92.9256 50.634V56.898L96.4716 53.946C96.5076 53.922 96.5676 53.874 96.6516 53.802C96.7356 53.742 96.8136 53.7 96.8856 53.676C96.9696 53.652 97.0716 53.64 97.1916 53.64H98.1456C98.2536 53.64 98.3436 53.676 98.4156 53.748C98.4876 53.82 98.5236 53.91 98.5236 54.018C98.5236 54.15 98.4516 54.264 98.3076 54.36L94.1496 57.816L98.7576 62.298C98.9016 62.418 98.9736 62.526 98.9736 62.622C98.9736 62.73 98.9376 62.82 98.8656 62.892C98.7936 62.964 98.7036 63 98.5956 63H97.6596C97.4796 63 97.3476 62.982 97.2636 62.946C97.1916 62.91 97.0836 62.826 96.9396 62.694L92.9256 58.86V62.586C92.9256 62.706 92.8836 62.808 92.7996 62.892C92.7276 62.964 92.6316 63 92.5116 63H91.6656ZM103.759 63.18C102.919 63.18 102.211 63.048 101.635 62.784C101.071 62.508 100.645 62.196 100.357 61.848C100.081 61.5 99.943 61.212 99.943 60.984C99.943 60.864 99.985 60.774 100.069 60.714C100.165 60.642 100.261 60.606 100.357 60.606H101.167C101.287 60.606 101.395 60.666 101.491 60.786C101.779 61.122 102.091 61.386 102.427 61.578C102.763 61.77 103.213 61.866 103.777 61.866C104.401 61.866 104.905 61.746 105.289 61.506C105.685 61.254 105.883 60.912 105.883 60.48C105.883 60.192 105.799 59.958 105.631 59.778C105.475 59.586 105.199 59.424 104.803 59.292C104.419 59.148 103.843 58.992 103.075 58.824C102.031 58.596 101.287 58.266 100.843 57.834C100.411 57.402 100.195 56.844 100.195 56.16C100.195 55.704 100.327 55.272 100.591 54.864C100.867 54.444 101.263 54.108 101.779 53.856C102.307 53.592 102.937 53.46 103.669 53.46C104.437 53.46 105.091 53.586 105.631 53.838C106.171 54.09 106.573 54.39 106.837 54.738C107.113 55.074 107.251 55.356 107.251 55.584C107.251 55.692 107.209 55.782 107.125 55.854C107.053 55.926 106.963 55.962 106.855 55.962H106.099C105.955 55.962 105.835 55.902 105.739 55.782C105.547 55.554 105.379 55.38 105.235 55.26C105.103 55.128 104.905 55.014 104.641 54.918C104.389 54.822 104.065 54.774 103.669 54.774C103.093 54.774 102.649 54.9 102.337 55.152C102.025 55.392 101.869 55.71 101.869 56.106C101.869 56.358 101.935 56.574 102.067 56.754C102.199 56.922 102.451 57.078 102.823 57.222C103.207 57.366 103.759 57.516 104.479 57.672C105.619 57.912 106.423 58.26 106.891 58.716C107.371 59.16 107.611 59.73 107.611 60.426C107.611 60.942 107.461 61.41 107.161 61.83C106.861 62.25 106.417 62.58 105.829 62.82C105.253 63.06 104.563 63.18 103.759 63.18ZM1.98 112C1.86 112 1.758 111.964 1.674 111.892C1.602 111.808 1.566 111.706 1.566 111.586V99.832C1.566 99.7 1.602 99.598 1.674 99.526C1.758 99.442 1.86 99.4 1.98 99.4H2.898C3.03 99.4 3.132 99.442 3.204 99.526C3.288 99.598 3.33 99.7 3.33 99.832V104.8H9.522V99.832C9.522 99.7 9.558 99.598 9.63 99.526C9.714 99.442 9.816 99.4 9.936 99.4H10.854C10.986 99.4 11.088 99.442 11.16 99.526C11.244 99.598 11.286 99.7 11.286 99.832V111.586C11.286 111.706 11.244 111.808 11.16 111.892C11.076 111.964 10.974 112 10.854 112H9.936C9.816 112 9.714 111.964 9.63 111.892C9.558 111.808 9.522 111.706 9.522 111.586V106.42H3.33V111.586C3.33 111.706 3.288 111.808 3.204 111.892C3.12 111.964 3.018 112 2.898 112H1.98ZM18.1956 112.18C16.8756 112.18 15.8496 111.808 15.1176 111.064C14.3976 110.32 14.0136 109.33 13.9656 108.094L13.9476 107.32L13.9656 106.546C14.0136 105.322 14.4036 104.338 15.1356 103.594C15.8676 102.838 16.8876 102.46 18.1956 102.46C19.5036 102.46 20.5236 102.838 21.2556 103.594C21.9876 104.338 22.3776 105.322 22.4256 106.546C22.4376 106.678 22.4436 106.936 22.4436 107.32C22.4436 107.704 22.4376 107.962 22.4256 108.094C22.3776 109.33 21.9876 110.32 21.2556 111.064C20.5356 111.808 19.5156 112.18 18.1956 112.18ZM18.1956 110.794C18.9516 110.794 19.5456 110.554 19.9776 110.074C20.4216 109.594 20.6616 108.904 20.6976 108.004C20.7096 107.884 20.7156 107.656 20.7156 107.32C20.7156 106.984 20.7096 106.756 20.6976 106.636C20.6616 105.736 20.4216 105.046 19.9776 104.566C19.5456 104.086 18.9516 103.846 18.1956 103.846C17.4396 103.846 16.8396 104.086 16.3956 104.566C15.9516 105.046 15.7176 105.736 15.6936 106.636L15.6756 107.32L15.6936 108.004C15.7176 108.904 15.9516 109.594 16.3956 110.074C16.8396 110.554 17.4396 110.794 18.1956 110.794ZM25.2915 112C25.1715 112 25.0695 111.964 24.9855 111.892C24.9135 111.808 24.8775 111.706 24.8775 111.586V103.054C24.8775 102.934 24.9135 102.838 24.9855 102.766C25.0695 102.682 25.1715 102.64 25.2915 102.64H26.1015C26.2215 102.64 26.3175 102.682 26.3895 102.766C26.4735 102.838 26.5155 102.934 26.5155 103.054V103.684C27.1395 102.868 28.0095 102.46 29.1255 102.46C30.4575 102.46 31.3995 103.012 31.9515 104.116C32.2395 103.612 32.6475 103.21 33.1755 102.91C33.7035 102.61 34.2975 102.46 34.9575 102.46C35.9415 102.46 36.7455 102.796 37.3695 103.468C37.9935 104.14 38.3055 105.112 38.3055 106.384V111.586C38.3055 111.706 38.2635 111.808 38.1795 111.892C38.1075 111.964 38.0115 112 37.8915 112H37.0455C36.9255 112 36.8235 111.964 36.7395 111.892C36.6675 111.808 36.6315 111.706 36.6315 111.586V106.546C36.6315 105.61 36.4335 104.938 36.0375 104.53C35.6535 104.122 35.1435 103.918 34.5075 103.918C33.9435 103.918 33.4575 104.128 33.0495 104.548C32.6415 104.956 32.4375 105.622 32.4375 106.546V111.586C32.4375 111.706 32.3955 111.808 32.3115 111.892C32.2395 111.964 32.1435 112 32.0235 112H31.1775C31.0575 112 30.9555 111.964 30.8715 111.892C30.7995 111.808 30.7635 111.706 30.7635 111.586V106.546C30.7635 105.61 30.5595 104.938 30.1515 104.53C29.7555 104.122 29.2515 103.918 28.6395 103.918C28.0755 103.918 27.5895 104.128 27.1815 104.548C26.7735 104.956 26.5695 105.616 26.5695 106.528V111.586C26.5695 111.706 26.5275 111.808 26.4435 111.892C26.3715 111.964 26.2755 112 26.1555 112H25.2915ZM44.7976 112.18C43.5616 112.18 42.5716 111.802 41.8276 111.046C41.0956 110.278 40.6936 109.234 40.6216 107.914L40.6036 107.302L40.6216 106.708C40.7056 105.412 41.1136 104.38 41.8456 103.612C42.5896 102.844 43.5676 102.46 44.7796 102.46C46.1116 102.46 47.1436 102.886 47.8756 103.738C48.6076 104.578 48.9736 105.718 48.9736 107.158V107.464C48.9736 107.584 48.9316 107.686 48.8476 107.77C48.7756 107.842 48.6796 107.878 48.5596 107.878H42.3316V108.04C42.3676 108.82 42.6016 109.486 43.0336 110.038C43.4776 110.578 44.0596 110.848 44.7796 110.848C45.3316 110.848 45.7816 110.74 46.1296 110.524C46.4896 110.296 46.7536 110.062 46.9216 109.822C47.0296 109.678 47.1076 109.594 47.1556 109.57C47.2156 109.534 47.3176 109.516 47.4616 109.516H48.3436C48.4516 109.516 48.5416 109.546 48.6136 109.606C48.6856 109.666 48.7216 109.75 48.7216 109.858C48.7216 110.122 48.5536 110.44 48.2176 110.812C47.8936 111.184 47.4316 111.508 46.8316 111.784C46.2436 112.048 45.5656 112.18 44.7976 112.18ZM47.2636 106.636V106.582C47.2636 105.754 47.0356 105.082 46.5796 104.566C46.1356 104.038 45.5356 103.774 44.7796 103.774C44.0236 103.774 43.4236 104.038 42.9796 104.566C42.5476 105.082 42.3316 105.754 42.3316 106.582V106.636H47.2636ZM59.318 112.18C58.07 112.18 57.128 111.772 56.492 110.956C55.856 110.14 55.52 109.108 55.484 107.86L55.466 107.32L55.484 106.78C55.52 105.544 55.856 104.518 56.492 103.702C57.128 102.874 58.07 102.46 59.318 102.46C60.554 102.46 61.526 102.898 62.234 103.774V99.634C62.234 99.514 62.27 99.418 62.342 99.346C62.426 99.262 62.528 99.22 62.648 99.22H63.512C63.632 99.22 63.728 99.262 63.8 99.346C63.884 99.418 63.926 99.514 63.926 99.634V111.586C63.926 111.706 63.884 111.808 63.8 111.892C63.728 111.964 63.632 112 63.512 112H62.702C62.582 112 62.48 111.964 62.396 111.892C62.324 111.808 62.288 111.706 62.288 111.586V110.83C61.592 111.73 60.602 112.18 59.318 112.18ZM59.696 110.722C60.524 110.722 61.142 110.452 61.55 109.912C61.97 109.36 62.198 108.706 62.234 107.95C62.246 107.818 62.252 107.59 62.252 107.266C62.252 106.93 62.246 106.696 62.234 106.564C62.21 105.856 61.982 105.238 61.55 104.71C61.118 104.182 60.5 103.918 59.696 103.918C58.844 103.918 58.22 104.182 57.824 104.71C57.44 105.238 57.23 105.934 57.194 106.798L57.176 107.32C57.176 109.588 58.016 110.722 59.696 110.722ZM70.5271 112.18C69.2911 112.18 68.3011 111.802 67.5571 111.046C66.8251 110.278 66.4231 109.234 66.3511 107.914L66.3331 107.302L66.3511 106.708C66.4351 105.412 66.8431 104.38 67.5751 103.612C68.3191 102.844 69.2971 102.46 70.5091 102.46C71.8411 102.46 72.8731 102.886 73.6051 103.738C74.3371 104.578 74.7031 105.718 74.7031 107.158V107.464C74.7031 107.584 74.6611 107.686 74.5771 107.77C74.5051 107.842 74.4091 107.878 74.2891 107.878H68.0611V108.04C68.0971 108.82 68.3311 109.486 68.7631 110.038C69.2071 110.578 69.7891 110.848 70.5091 110.848C71.0611 110.848 71.5111 110.74 71.8591 110.524C72.2191 110.296 72.4831 110.062 72.6511 109.822C72.7591 109.678 72.8371 109.594 72.8851 109.57C72.9451 109.534 73.0471 109.516 73.1911 109.516H74.0731C74.1811 109.516 74.2711 109.546 74.3431 109.606C74.4151 109.666 74.4511 109.75 74.4511 109.858C74.4511 110.122 74.2831 110.44 73.9471 110.812C73.6231 111.184 73.1611 111.508 72.5611 111.784C71.9731 112.048 71.2951 112.18 70.5271 112.18ZM72.9931 106.636V106.582C72.9931 105.754 72.7651 105.082 72.3091 104.566C71.8651 104.038 71.2651 103.774 70.5091 103.774C69.7531 103.774 69.1531 104.038 68.7091 104.566C68.2771 105.082 68.0611 105.754 68.0611 106.582V106.636H72.9931ZM77.4674 112C77.3474 112 77.2454 111.964 77.1614 111.892C77.0894 111.808 77.0534 111.706 77.0534 111.586V99.634C77.0534 99.514 77.0894 99.418 77.1614 99.346C77.2454 99.262 77.3474 99.22 77.4674 99.22H78.3134C78.4334 99.22 78.5294 99.262 78.6014 99.346C78.6854 99.418 78.7274 99.514 78.7274 99.634V111.586C78.7274 111.706 78.6854 111.808 78.6014 111.892C78.5294 111.964 78.4334 112 78.3134 112H77.4674ZM81.8623 100.894C81.7423 100.894 81.6403 100.858 81.5563 100.786C81.4843 100.702 81.4483 100.6 81.4483 100.48V99.508C81.4483 99.388 81.4843 99.286 81.5563 99.202C81.6403 99.118 81.7423 99.076 81.8623 99.076H82.9963C83.1163 99.076 83.2183 99.118 83.3023 99.202C83.3863 99.286 83.4283 99.388 83.4283 99.508V100.48C83.4283 100.6 83.3863 100.702 83.3023 100.786C83.2183 100.858 83.1163 100.894 82.9963 100.894H81.8623ZM82.0063 112C81.8863 112 81.7843 111.964 81.7003 111.892C81.6283 111.808 81.5923 111.706 81.5923 111.586V103.054C81.5923 102.934 81.6283 102.838 81.7003 102.766C81.7843 102.682 81.8863 102.64 82.0063 102.64H82.8703C82.9903 102.64 83.0863 102.682 83.1583 102.766C83.2423 102.838 83.2843 102.934 83.2843 103.054V111.586C83.2843 111.706 83.2423 111.808 83.1583 111.892C83.0863 111.964 82.9903 112 82.8703 112H82.0063ZM89.3897 112C89.0777 112 88.8557 111.85 88.7237 111.55L85.3937 103.198L85.3577 103.018C85.3577 102.91 85.3937 102.82 85.4657 102.748C85.5377 102.676 85.6277 102.64 85.7357 102.64H86.5997C86.8037 102.64 86.9537 102.742 87.0497 102.946L89.7857 110.038L92.5217 102.946C92.6297 102.742 92.7737 102.64 92.9537 102.64H93.8357C93.9317 102.64 94.0157 102.676 94.0877 102.748C94.1717 102.82 94.2137 102.91 94.2137 103.018L94.1777 103.198L90.8297 111.55C90.6977 111.85 90.4757 112 90.1637 112H89.3897ZM99.6885 112.18C98.4525 112.18 97.4625 111.802 96.7185 111.046C95.9865 110.278 95.5845 109.234 95.5125 107.914L95.4945 107.302L95.5125 106.708C95.5965 105.412 96.0045 104.38 96.7365 103.612C97.4805 102.844 98.4585 102.46 99.6705 102.46C101.003 102.46 102.035 102.886 102.767 103.738C103.499 104.578 103.865 105.718 103.865 107.158V107.464C103.865 107.584 103.823 107.686 103.739 107.77C103.667 107.842 103.571 107.878 103.451 107.878H97.2225V108.04C97.2585 108.82 97.4925 109.486 97.9245 110.038C98.3685 110.578 98.9505 110.848 99.6705 110.848C100.223 110.848 100.673 110.74 101.021 110.524C101.381 110.296 101.645 110.062 101.813 109.822C101.921 109.678 101.999 109.594 102.047 109.57C102.107 109.534 102.209 109.516 102.353 109.516H103.235C103.343 109.516 103.433 109.546 103.505 109.606C103.577 109.666 103.613 109.75 103.613 109.858C103.613 110.122 103.445 110.44 103.109 110.812C102.785 111.184 102.323 111.508 101.723 111.784C101.135 112.048 100.457 112.18 99.6885 112.18ZM102.155 106.636V106.582C102.155 105.754 101.927 105.082 101.471 104.566C101.027 104.038 100.427 103.774 99.6705 103.774C98.9145 103.774 98.3145 104.038 97.8705 104.566C97.4385 105.082 97.2225 105.754 97.2225 106.582V106.636H102.155ZM106.611 112C106.491 112 106.389 111.964 106.305 111.892C106.233 111.808 106.197 111.706 106.197 111.586V103.072C106.197 102.952 106.233 102.85 106.305 102.766C106.389 102.682 106.491 102.64 106.611 102.64H107.439C107.559 102.64 107.661 102.682 107.745 102.766C107.829 102.85 107.871 102.952 107.871 103.072V103.864C108.363 103.048 109.203 102.64 110.391 102.64H111.093C111.213 102.64 111.309 102.682 111.381 102.766C111.465 102.838 111.507 102.934 111.507 103.054V103.792C111.507 103.912 111.465 104.008 111.381 104.08C111.309 104.152 111.213 104.188 111.093 104.188H110.013C109.365 104.188 108.855 104.38 108.483 104.764C108.111 105.136 107.925 105.646 107.925 106.294V111.586C107.925 111.706 107.883 111.808 107.799 111.892C107.715 111.964 107.613 112 107.493 112H106.611ZM114.853 115.42C114.757 115.42 114.673 115.384 114.601 115.312C114.529 115.24 114.493 115.156 114.493 115.06C114.493 114.976 114.523 114.868 114.583 114.736L115.969 111.442L112.531 103.324C112.471 103.168 112.441 103.066 112.441 103.018C112.441 102.91 112.477 102.82 112.549 102.748C112.621 102.676 112.711 102.64 112.819 102.64H113.701C113.893 102.64 114.037 102.742 114.133 102.946L116.869 109.498L119.677 102.946C119.773 102.742 119.923 102.64 120.127 102.64H120.973C121.081 102.64 121.171 102.676 121.243 102.748C121.315 102.82 121.351 102.904 121.351 103C121.351 103.036 121.321 103.144 121.261 103.324L116.149 115.114C116.053 115.318 115.903 115.42 115.699 115.42H114.853ZM1.98 161C1.86 161 1.758 160.964 1.674 160.892C1.602 160.808 1.566 160.706 1.566 160.586V148.832C1.566 148.7 1.602 148.598 1.674 148.526C1.758 148.442 1.86 148.4 1.98 148.4H6.552C7.908 148.4 8.976 148.73 9.756 149.39C10.536 150.05 10.926 151.004 10.926 152.252C10.926 153.5 10.536 154.454 9.756 155.114C8.988 155.762 7.92 156.086 6.552 156.086H3.366V160.586C3.366 160.706 3.324 160.808 3.24 160.892C3.156 160.964 3.054 161 2.934 161H1.98ZM6.462 154.574C7.338 154.574 7.998 154.376 8.442 153.98C8.898 153.584 9.126 153.008 9.126 152.252C9.126 151.496 8.904 150.92 8.46 150.524C8.016 150.116 7.35 149.912 6.462 149.912H3.348V154.574H6.462ZM13.4748 161C13.3548 161 13.2528 160.964 13.1688 160.892C13.0968 160.808 13.0608 160.706 13.0608 160.586V152.072C13.0608 151.952 13.0968 151.85 13.1688 151.766C13.2528 151.682 13.3548 151.64 13.4748 151.64H14.3028C14.4228 151.64 14.5248 151.682 14.6088 151.766C14.6928 151.85 14.7348 151.952 14.7348 152.072V152.864C15.2268 152.048 16.0668 151.64 17.2548 151.64H17.9568C18.0768 151.64 18.1728 151.682 18.2448 151.766C18.3288 151.838 18.3708 151.934 18.3708 152.054V152.792C18.3708 152.912 18.3288 153.008 18.2448 153.08C18.1728 153.152 18.0768 153.188 17.9568 153.188H16.8768C16.2288 153.188 15.7188 153.38 15.3468 153.764C14.9748 154.136 14.7888 154.646 14.7888 155.294V160.586C14.7888 160.706 14.7468 160.808 14.6628 160.892C14.5788 160.964 14.4768 161 14.3568 161H13.4748ZM23.3054 161.18C22.0574 161.18 21.1154 160.772 20.4794 159.956C19.8434 159.14 19.5074 158.108 19.4714 156.86L19.4534 156.32L19.4714 155.78C19.5074 154.544 19.8434 153.518 20.4794 152.702C21.1154 151.874 22.0574 151.46 23.3054 151.46C24.5414 151.46 25.5134 151.898 26.2214 152.774V148.634C26.2214 148.514 26.2574 148.418 26.3294 148.346C26.4134 148.262 26.5154 148.22 26.6354 148.22H27.4994C27.6194 148.22 27.7154 148.262 27.7874 148.346C27.8714 148.418 27.9134 148.514 27.9134 148.634V160.586C27.9134 160.706 27.8714 160.808 27.7874 160.892C27.7154 160.964 27.6194 161 27.4994 161H26.6894C26.5694 161 26.4674 160.964 26.3834 160.892C26.3114 160.808 26.2754 160.706 26.2754 160.586V159.83C25.5794 160.73 24.5894 161.18 23.3054 161.18ZM23.6834 159.722C24.5114 159.722 25.1294 159.452 25.5374 158.912C25.9574 158.36 26.1854 157.706 26.2214 156.95C26.2334 156.818 26.2394 156.59 26.2394 156.266C26.2394 155.93 26.2334 155.696 26.2214 155.564C26.1974 154.856 25.9694 154.238 25.5374 153.71C25.1054 153.182 24.4874 152.918 23.6834 152.918C22.8314 152.918 22.2074 153.182 21.8114 153.71C21.4274 154.238 21.2174 154.934 21.1814 155.798L21.1634 156.32C21.1634 158.588 22.0034 159.722 23.6834 159.722ZM34.2624 161.18C33.1224 161.18 32.2404 160.814 31.6164 160.082C30.9924 159.338 30.6804 158.354 30.6804 157.13V152.054C30.6804 151.934 30.7164 151.838 30.7884 151.766C30.8724 151.682 30.9744 151.64 31.0944 151.64H31.9944C32.1144 151.64 32.2104 151.682 32.2824 151.766C32.3664 151.838 32.4084 151.934 32.4084 152.054V157.04C32.4084 158.828 33.1884 159.722 34.7484 159.722C35.5044 159.722 36.1044 159.488 36.5484 159.02C36.9924 158.54 37.2144 157.88 37.2144 157.04V152.054C37.2144 151.934 37.2504 151.838 37.3224 151.766C37.4064 151.682 37.5084 151.64 37.6284 151.64H38.5284C38.6484 151.64 38.7444 151.682 38.8164 151.766C38.8884 151.838 38.9244 151.934 38.9244 152.054V160.586C38.9244 160.706 38.8884 160.808 38.8164 160.892C38.7444 160.964 38.6484 161 38.5284 161H37.6824C37.5624 161 37.4604 160.964 37.3764 160.892C37.3044 160.808 37.2684 160.706 37.2684 160.586V159.794C36.9324 160.25 36.5244 160.598 36.0444 160.838C35.5644 161.066 34.9704 161.18 34.2624 161.18ZM45.5586 161.18C44.2746 161.18 43.2666 160.82 42.5346 160.1C41.8146 159.368 41.4306 158.348 41.3826 157.04L41.3646 156.32L41.3826 155.6C41.4306 154.292 41.8146 153.278 42.5346 152.558C43.2666 151.826 44.2746 151.46 45.5586 151.46C46.4226 151.46 47.1546 151.616 47.7546 151.928C48.3546 152.24 48.7986 152.624 49.0866 153.08C49.3866 153.536 49.5486 153.992 49.5726 154.448C49.5846 154.568 49.5486 154.664 49.4646 154.736C49.3806 154.808 49.2786 154.844 49.1586 154.844H48.2946C48.1746 154.844 48.0846 154.82 48.0246 154.772C47.9646 154.724 47.9046 154.628 47.8446 154.484C47.6406 153.908 47.3526 153.5 46.9806 153.26C46.6086 153.008 46.1406 152.882 45.5766 152.882C44.8326 152.882 44.2386 153.116 43.7946 153.584C43.3626 154.04 43.1286 154.742 43.0926 155.69L43.0746 156.338L43.0926 156.95C43.1286 157.91 43.3626 158.618 43.7946 159.074C44.2266 159.53 44.8206 159.758 45.5766 159.758C46.1406 159.758 46.6086 159.638 46.9806 159.398C47.3526 159.146 47.6406 158.732 47.8446 158.156C47.9046 158.012 47.9646 157.916 48.0246 157.868C48.0846 157.808 48.1746 157.778 48.2946 157.778H49.1586C49.2786 157.778 49.3806 157.82 49.4646 157.904C49.5486 157.976 49.5846 158.072 49.5726 158.192C49.5486 158.636 49.3866 159.092 49.0866 159.56C48.7986 160.016 48.3546 160.4 47.7546 160.712C47.1666 161.024 46.4346 161.18 45.5586 161.18ZM55.5442 161C53.6482 161 52.7002 159.944 52.7002 157.832V153.08H51.2962C51.1762 153.08 51.0742 153.044 50.9902 152.972C50.9182 152.888 50.8822 152.786 50.8822 152.666V152.054C50.8822 151.934 50.9182 151.838 50.9902 151.766C51.0742 151.682 51.1762 151.64 51.2962 151.64H52.7002V148.634C52.7002 148.514 52.7362 148.418 52.8082 148.346C52.8922 148.262 52.9942 148.22 53.1142 148.22H53.9602C54.0802 148.22 54.1762 148.262 54.2482 148.346C54.3322 148.418 54.3742 148.514 54.3742 148.634V151.64H56.6062C56.7262 151.64 56.8222 151.682 56.8942 151.766C56.9782 151.838 57.0202 151.934 57.0202 152.054V152.666C57.0202 152.786 56.9782 152.888 56.8942 152.972C56.8222 153.044 56.7262 153.08 56.6062 153.08H54.3742V157.706C54.3742 158.306 54.4762 158.762 54.6802 159.074C54.8842 159.374 55.2202 159.524 55.6882 159.524H56.7862C56.9062 159.524 57.0022 159.566 57.0742 159.65C57.1582 159.722 57.2002 159.818 57.2002 159.938V160.586C57.2002 160.706 57.1582 160.808 57.0742 160.892C57.0022 160.964 56.9062 161 56.7862 161H55.5442ZM62.3415 161.18C61.5015 161.18 60.7935 161.048 60.2175 160.784C59.6535 160.508 59.2275 160.196 58.9395 159.848C58.6635 159.5 58.5255 159.212 58.5255 158.984C58.5255 158.864 58.5675 158.774 58.6515 158.714C58.7475 158.642 58.8435 158.606 58.9395 158.606H59.7495C59.8695 158.606 59.9775 158.666 60.0735 158.786C60.3615 159.122 60.6735 159.386 61.0095 159.578C61.3455 159.77 61.7955 159.866 62.3595 159.866C62.9835 159.866 63.4875 159.746 63.8715 159.506C64.2675 159.254 64.4655 158.912 64.4655 158.48C64.4655 158.192 64.3815 157.958 64.2135 157.778C64.0575 157.586 63.7815 157.424 63.3855 157.292C63.0015 157.148 62.4255 156.992 61.6575 156.824C60.6135 156.596 59.8695 156.266 59.4255 155.834C58.9935 155.402 58.7775 154.844 58.7775 154.16C58.7775 153.704 58.9095 153.272 59.1735 152.864C59.4495 152.444 59.8455 152.108 60.3615 151.856C60.8895 151.592 61.5195 151.46 62.2515 151.46C63.0195 151.46 63.6735 151.586 64.2135 151.838C64.7535 152.09 65.1555 152.39 65.4195 152.738C65.6955 153.074 65.8335 153.356 65.8335 153.584C65.8335 153.692 65.7915 153.782 65.7075 153.854C65.6355 153.926 65.5455 153.962 65.4375 153.962H64.6815C64.5375 153.962 64.4175 153.902 64.3215 153.782C64.1295 153.554 63.9615 153.38 63.8175 153.26C63.6855 153.128 63.4875 153.014 63.2235 152.918C62.9715 152.822 62.6475 152.774 62.2515 152.774C61.6755 152.774 61.2315 152.9 60.9195 153.152C60.6075 153.392 60.4515 153.71 60.4515 154.106C60.4515 154.358 60.5175 154.574 60.6495 154.754C60.7815 154.922 61.0335 155.078 61.4055 155.222C61.7895 155.366 62.3415 155.516 63.0615 155.672C64.2015 155.912 65.0055 156.26 65.4735 156.716C65.9535 157.16 66.1935 157.73 66.1935 158.426C66.1935 158.942 66.0435 159.41 65.7435 159.83C65.4435 160.25 64.9995 160.58 64.4115 160.82C63.8355 161.06 63.1455 161.18 62.3415 161.18ZM1.98 210C1.86 210 1.758 209.964 1.674 209.892C1.602 209.808 1.566 209.706 1.566 209.586V197.832C1.566 197.7 1.602 197.598 1.674 197.526C1.758 197.442 1.86 197.4 1.98 197.4H2.88C3.072 197.4 3.228 197.496 3.348 197.688L7.146 204.96L10.98 197.688C11.004 197.616 11.052 197.55 11.124 197.49C11.208 197.43 11.31 197.4 11.43 197.4H12.312C12.444 197.4 12.546 197.442 12.618 197.526C12.702 197.598 12.744 197.7 12.744 197.832V209.586C12.744 209.706 12.702 209.808 12.618 209.892C12.534 209.964 12.432 210 12.312 210H11.43C11.31 210 11.208 209.964 11.124 209.892C11.052 209.808 11.016 209.706 11.016 209.586V200.73L8.01 206.598C7.89 206.85 7.698 206.976 7.434 206.976H6.876C6.612 206.976 6.42 206.85 6.3 206.598L3.276 200.73V209.586C3.276 209.706 3.234 209.808 3.15 209.892C3.078 209.964 2.982 210 2.862 210H1.98ZM19.547 210.18C18.311 210.18 17.321 209.802 16.577 209.046C15.845 208.278 15.443 207.234 15.371 205.914L15.353 205.302L15.371 204.708C15.455 203.412 15.863 202.38 16.595 201.612C17.339 200.844 18.317 200.46 19.529 200.46C20.861 200.46 21.893 200.886 22.625 201.738C23.357 202.578 23.723 203.718 23.723 205.158V205.464C23.723 205.584 23.681 205.686 23.597 205.77C23.525 205.842 23.429 205.878 23.309 205.878H17.081V206.04C17.117 206.82 17.351 207.486 17.783 208.038C18.227 208.578 18.809 208.848 19.529 208.848C20.081 208.848 20.531 208.74 20.879 208.524C21.239 208.296 21.503 208.062 21.671 207.822C21.779 207.678 21.857 207.594 21.905 207.57C21.965 207.534 22.067 207.516 22.211 207.516H23.093C23.201 207.516 23.291 207.546 23.363 207.606C23.435 207.666 23.471 207.75 23.471 207.858C23.471 208.122 23.303 208.44 22.967 208.812C22.643 209.184 22.181 209.508 21.581 209.784C20.993 210.048 20.315 210.18 19.547 210.18ZM22.013 204.636V204.582C22.013 203.754 21.785 203.082 21.329 202.566C20.885 202.038 20.285 201.774 19.529 201.774C18.773 201.774 18.173 202.038 17.729 202.566C17.297 203.082 17.081 203.754 17.081 204.582V204.636H22.013ZM26.4693 210C26.3493 210 26.2473 209.964 26.1633 209.892C26.0913 209.808 26.0553 209.706 26.0553 209.586V201.054C26.0553 200.934 26.0913 200.838 26.1633 200.766C26.2473 200.682 26.3493 200.64 26.4693 200.64H27.3153C27.4353 200.64 27.5313 200.682 27.6033 200.766C27.6873 200.838 27.7293 200.934 27.7293 201.054V201.846C28.0773 201.402 28.4853 201.06 28.9533 200.82C29.4333 200.58 30.0273 200.46 30.7353 200.46C31.8873 200.46 32.7813 200.832 33.4173 201.576C34.0653 202.308 34.3893 203.286 34.3893 204.51V209.586C34.3893 209.706 34.3473 209.808 34.2633 209.892C34.1913 209.964 34.0953 210 33.9753 210H33.0753C32.9553 210 32.8533 209.964 32.7693 209.892C32.6973 209.808 32.6613 209.706 32.6613 209.586V204.6C32.6613 203.748 32.4513 203.088 32.0313 202.62C31.6233 202.152 31.0293 201.918 30.2493 201.918C29.4933 201.918 28.8933 202.158 28.4493 202.638C28.0053 203.106 27.7833 203.76 27.7833 204.6V209.586C27.7833 209.706 27.7413 209.808 27.6573 209.892C27.5853 209.964 27.4893 210 27.3693 210H26.4693ZM40.6433 210.18C39.5033 210.18 38.6213 209.814 37.9973 209.082C37.3733 208.338 37.0613 207.354 37.0613 206.13V201.054C37.0613 200.934 37.0973 200.838 37.1693 200.766C37.2533 200.682 37.3553 200.64 37.4753 200.64H38.3753C38.4953 200.64 38.5913 200.682 38.6633 200.766C38.7473 200.838 38.7893 200.934 38.7893 201.054V206.04C38.7893 207.828 39.5693 208.722 41.1293 208.722C41.8853 208.722 42.4853 208.488 42.9293 208.02C43.3733 207.54 43.5953 206.88 43.5953 206.04V201.054C43.5953 200.934 43.6313 200.838 43.7033 200.766C43.7873 200.682 43.8893 200.64 44.0093 200.64H44.9093C45.0293 200.64 45.1253 200.682 45.1973 200.766C45.2693 200.838 45.3053 200.934 45.3053 201.054V209.586C45.3053 209.706 45.2693 209.808 45.1973 209.892C45.1253 209.964 45.0293 210 44.9093 210H44.0633C43.9433 210 43.8413 209.964 43.7573 209.892C43.6853 209.808 43.6493 209.706 43.6493 209.586V208.794C43.3133 209.25 42.9053 209.598 42.4253 209.838C41.9453 210.066 41.3513 210.18 40.6433 210.18Z" fill="#37383D"/>
</svg>
